<?xml version="1.0" encoding="UTF-8"?>
<svg id="Capa_2" data-name="Capa 2" xmlns="http://www.w3.org/2000/svg" viewBox="0 0 153.02 61.57">
  <defs>
    <style>
      .cls-1, .cls-2, .cls-3, .cls-4, .cls-5, .cls-6, .cls-7, .cls-8, .cls-9, .cls-10 {
        isolation: isolate;
      }

      .cls-11, .cls-12 {
        fill-rule: evenodd;
        stroke-width: 0px;
      }

      .cls-11, .cls-7 {
        fill: #36bfc1;
      }

      .cls-2, .cls-3, .cls-4, .cls-7, .cls-9, .cls-10 {
        font-family: Arial-BoldMT, Arial;
        font-weight: 700;
      }

      .cls-2, .cls-3, .cls-8, .cls-10 {
        fill: #134883;
      }

      .cls-2, .cls-4, .cls-9, .cls-10 {
        font-size: 20.81px;
      }

      .cls-3, .cls-6, .cls-7, .cls-8 {
        font-size: 5.77px;
      }

      .cls-4, .cls-6, .cls-9 {
        fill: #58595b;
      }

      .cls-13 {
        fill: none;
        stroke: #58595b;
        stroke-linecap: round;
        stroke-linejoin: round;
        stroke-width: 2.13px;
      }

      .cls-5 {
        fill: #404041;
        font-size: 6.42px;
      }

      .cls-5, .cls-6, .cls-8 {
        font-family: ArialMT, Arial;
      }

      .cls-12 {
        fill: #231f20;
      }

      .cls-9, .cls-10 {
        letter-spacing: -.04em;
      }
    </style>
  </defs>
  <g id="Capa_2-2" data-name="Capa 2">
    <g id="Capa_1-2" data-name="Capa 1-2">
      <g>
        <path class="cls-11" d="m8.18,35.5c1.08-3.2,3.12-5.55,5.53-7.23,3.21-2.23,7.1-3.18,10.19-3.29.58-.02,1.12-.01,1.6.02,1.29.08,2.27,1.19,2.19,2.48s-1.19,2.27-2.48,2.19c-.38-.02-.77-.03-1.16-.02-2.34.08-5.27.8-7.68,2.47-1.74,1.21-3.2,2.95-3.89,5.36-.07-.12-.17-.23-.3-.32-.77-.53-1.63-.94-2.5-1.27-.49-.18-.98-.31-1.49-.4m-.82,6.1v-.27c-.01-.46,0-.9,0-1.32h.06c.36.11.71.22,1.05.37.27.12.54.25.79.41.11.07.28.18.37.26.23.23.53.33.85.28s.58-.23.74-.51l.91-1.67c-.03.24-.06.49-.07.75-.02.24-.03.48-.03.72v.03c-.36.84-.56,1.72-.62,2.62-.51-.4-1.1-.71-1.71-.94-.67-.25-1.36-.47-2.06-.65h-.02l-.26-.07h0Zm30.13,10.64c-1.64,1.54-3.47,2.74-5.4,3.59-3.03,1.34-6.31,1.83-9.45,1.5-3.17-.33-6.23-1.5-8.77-3.49-.99-.78-1.91-1.67-2.72-2.69.6-.43,1.07-.99,1.41-1.64.13-.25.24-.51.32-.78.23.33.47.65.75.96.73.81,1.6,1.45,2.58,1.92,1.06.51,2.21.73,3.38.73.43,0,.86-.03,1.28-.1.73.21,1.48.35,2.24.43,1.7.18,3.45.03,5.15-.44h2.62c.55,0,1.01-.45,1.01-1.01v-.57c.79-.49,1.55-1.06,2.27-1.72l1.71,2.81c.19.31.5.48.86.48h.76v.02Zm2.36-8.65c-.12.31-.28.62-.46.91-.38.61-.84,1.13-1.41,1.53l1.86,3.07v-5.52h.01Zm-17.68-7.84c.17-.47.49-.88.94-1.17,2.97-1.92,4.8-5.23,5.88-9.01,1.59-5.58,1.57-12.15,1.14-17.17-.12-1.4-.17-1.92-.21-2.34-.29-3.08-.48-4.96,1.22-5.8,2.06-1.02,3.57,1.03,6.28,6.51,2.43,4.91,4.97,12.87,6.1,20.59.41,2.79.64,5.57.61,8.19-.12-.05-.26-.08-.4-.08h-2.87c-.55,0-1.01.45-1.01,1.01v2.8s-.01-.03-.02-.04c-.14-.36-.31-.7-.52-1.02.3-3.03.1-6.56-.43-10.17-.77-5.27-2.23-10.63-3.83-14.91.06,4.41-.3,9.3-1.56,13.73-.92,3.22-2.32,6.2-4.38,8.61h-1.1c-.55,0-1.01.45-1.01,1.01v1.06c-.37.3-.76.59-1.16.86-.08-.11-.17-.21-.26-.31-.72-.82-1.59-1.47-2.56-1.95-.28-.14-.56-.26-.85-.36v-.04Z"/>
        <g class="cls-1">
          <text class="cls-2" transform="translate(0 51.23)"><tspan x="0" y="0">S</tspan></text>
        </g>
        <g class="cls-1">
          <text class="cls-2" transform="translate(11.75 51.23)"><tspan x="0" y="0">O</tspan></text>
        </g>
        <g class="cls-1">
          <text class="cls-2" transform="translate(26.48 51.23)"><tspan x="0" y="0">R</tspan></text>
        </g>
        <g class="cls-1">
          <text class="cls-2" transform="translate(39.32 51.23)"><tspan x="0" y="0">I</tspan></text>
        </g>
        <g class="cls-1">
          <text class="cls-10" transform="translate(44.27 51.23)"><tspan x="0" y="0">A</tspan></text>
        </g>
        <g class="cls-1">
          <text class="cls-2" transform="translate(57.26 51.23)"><tspan x="0" y="0">N</tspan></text>
        </g>
        <g class="cls-1">
          <text class="cls-2" transform="translate(72.13 51.23)"><tspan x="0" y="0">O</tspan></text>
        </g>
        <g class="cls-1">
          <text class="cls-8" transform="translate(34.31 58.74)"><tspan x="0" y="0">departamento</tspan></text>
        </g>
        <g class="cls-1">
          <text class="cls-3" transform="translate(73.92 58.74)"><tspan x="0" y="0">f</tspan></text>
        </g>
        <g class="cls-1">
          <text class="cls-3" transform="translate(75.9 58.74)"><tspan x="0" y="0">értil</tspan></text>
        </g>
        <path class="cls-11" d="m8.18,35.5c1.08-3.2,3.12-5.55,5.53-7.23,3.21-2.23,7.1-3.18,10.19-3.29.58-.02,1.12-.01,1.6.02,1.29.08,2.27,1.19,2.19,2.48s-1.19,2.27-2.48,2.19c-.38-.02-.77-.03-1.16-.02-2.34.08-5.27.8-7.68,2.47-1.74,1.21-3.2,2.95-3.89,5.36-.07-.12-.17-.23-.3-.32-.77-.53-1.63-.94-2.5-1.27-.49-.18-.98-.31-1.49-.4m-.82,6.1v-.27c-.01-.46,0-.9,0-1.32h.06c.36.11.71.22,1.05.37.27.12.54.25.79.41.11.07.28.18.37.26.23.23.53.33.85.28s.58-.23.74-.51l.91-1.67c-.03.24-.06.49-.07.75-.02.24-.03.48-.03.72v.03c-.36.84-.56,1.72-.62,2.62-.51-.4-1.1-.71-1.71-.94-.67-.25-1.36-.47-2.06-.65h-.02l-.26-.07h0Zm30.13,10.64c-1.64,1.54-3.47,2.74-5.4,3.59-3.03,1.34-6.31,1.83-9.45,1.5-3.17-.33-6.23-1.5-8.77-3.49-.99-.78-1.91-1.67-2.72-2.69.6-.43,1.07-.99,1.41-1.64.13-.25.24-.51.32-.78.23.33.47.65.75.96.73.81,1.6,1.45,2.58,1.92,1.06.51,2.21.73,3.38.73.43,0,.86-.03,1.28-.1.73.21,1.48.35,2.24.43,1.7.18,3.45.03,5.15-.44h2.62c.55,0,1.01-.45,1.01-1.01v-.57c.79-.49,1.55-1.06,2.27-1.72l1.71,2.81c.19.31.5.48.86.48h.76v.02Zm2.36-8.65c-.12.31-.28.62-.46.91-.38.61-.84,1.13-1.41,1.53l1.86,3.07v-5.52h.01Zm-17.68-7.84c.17-.47.49-.88.94-1.17,2.97-1.92,4.8-5.23,5.88-9.01,1.59-5.58,1.57-12.15,1.14-17.17-.12-1.4-.17-1.92-.21-2.34-.29-3.08-.48-4.96,1.22-5.8,2.06-1.02,3.57,1.03,6.28,6.51,2.43,4.91,4.97,12.87,6.1,20.59.41,2.79.64,5.57.61,8.19-.12-.05-.26-.08-.4-.08h-2.87c-.55,0-1.01.45-1.01,1.01v2.8s-.01-.03-.02-.04c-.14-.36-.31-.7-.52-1.02.3-3.03.1-6.56-.43-10.17-.77-5.27-2.23-10.63-3.83-14.91.06,4.41-.3,9.3-1.56,13.73-.92,3.22-2.32,6.2-4.38,8.61h-1.1c-.55,0-1.01.45-1.01,1.01v1.06c-.37.3-.76.59-1.16.86-.08-.11-.17-.21-.26-.31-.72-.82-1.59-1.47-2.56-1.95-.28-.14-.56-.26-.85-.36v-.04Z"/>
        <g class="cls-1">
          <text class="cls-4" transform="translate(0 51.23)"><tspan x="0" y="0">S</tspan></text>
        </g>
        <g class="cls-1">
          <text class="cls-4" transform="translate(11.75 51.23)"><tspan x="0" y="0">O</tspan></text>
        </g>
        <g class="cls-1">
          <text class="cls-4" transform="translate(26.48 51.23)"><tspan x="0" y="0">R</tspan></text>
        </g>
        <g class="cls-1">
          <text class="cls-4" transform="translate(39.32 51.23)"><tspan x="0" y="0">I</tspan></text>
        </g>
        <g class="cls-1">
          <text class="cls-9" transform="translate(44.27 51.23)"><tspan x="0" y="0">A</tspan></text>
        </g>
        <g class="cls-1">
          <text class="cls-4" transform="translate(57.26 51.23)"><tspan x="0" y="0">N</tspan></text>
        </g>
        <g class="cls-1">
          <text class="cls-4" transform="translate(72.13 51.23)"><tspan x="0" y="0">O</tspan></text>
        </g>
        <g class="cls-1">
          <text class="cls-6" transform="translate(34.31 58.74)"><tspan x="0" y="0">departamento</tspan></text>
        </g>
        <g class="cls-1">
          <text class="cls-7" transform="translate(73.92 58.74)"><tspan x="0" y="0">f</tspan></text>
        </g>
        <g class="cls-1">
          <text class="cls-7" transform="translate(75.9 58.74)"><tspan x="0" y="0">értil</tspan></text>
        </g>
        <line class="cls-13" x1="103.06" y1="9.25" x2="103.06" y2="56.35"/>
        <g class="cls-1">
          <text class="cls-5" transform="translate(123 53.45)"><tspan x="0" y="0">Secr</tspan></text>
        </g>
        <g class="cls-1">
          <text class="cls-5" transform="translate(136.51 53.45)"><tspan x="0" y="0">etaría</tspan></text>
        </g>
        <g class="cls-1">
          <text class="cls-5" transform="translate(121.22 59.48)"><tspan x="0" y="0">de Deporte</tspan></text>
        </g>
        <path class="cls-12" d="m152.3,18.84h0c.11.2.05.45-.15.56l-13.79,7.96,13.79,7.96c.19.11.26.36.15.56-.11.19-.36.26-.56.15l-13.79-7.96v15.92c0,.22-.18.41-.41.41s-.41-.18-.41-.41v-15.92l-13.79,7.96c-.19.11-.45.04-.56-.15s-.05-.45.15-.56l13.79-7.96-13.79-7.96c-.19-.11-.26-.36-.15-.56.11-.19.36-.26.56-.15l13.79,7.96v-15.92c0-.22.18-.41.41-.41s.41.18.41.41v15.92l13.79-7.96c.19-.11.45-.05.56.15"/>
        <path class="cls-12" d="m146.87,29.33c-1.17.47-.52,2.12.59,1.8.43-.13.78-.62.62-1.2-.12-.42-.66-.82-1.2-.6m3.17-6.76c-.42.09-.71.39-.59.91.08.38.48.68.94.57.86-.21.71-1.71-.35-1.48Zm1.38,1.78c-.77,0-3.04-.07-3.44,0-.32.06-.78.64-.98.9-.56.74.21.84.68.19.49-.61.45-.36,1.2-.42-.08.5-.25.85-.38,1.3-.18.61-.37,1.26-.57,1.87-.15.47.45.8.65.17l.29-.77h.58l-.85,3.16c-.1.41.48.6.63.22l1.71-5.94c.99,0,.85.12,1.43-.4.22-.2.34-.29.41-.35.44-.41.24-1.14-.46-.53-.28.24-.49.61-.9.61h0Z"/>
        <path class="cls-12" d="m140.46,38.6c-2.33.82-1.08,3.92.93,3.31.88-.27,1.47-1.17,1.2-2.1-.23-.79-1.11-1.56-2.13-1.21m6.26-.01c-2.29.68-1.21,3.9.89,3.33,2.2-.59,1.25-3.97-.89-3.33Zm-.19-.52c-1.84.47-2.22,3.15-.58,4.09.53.3,1.08.5,1.81.28,1.05-.31,1.96-1.41,1.59-2.76-.3-1.1-1.38-1.99-2.82-1.62h0Zm-2.5.58c-.15.58-.5,1.24-.61,1.79-.1.48.61,1.06,1.04-.11.87-2.41.95-1.96-.73-2.87l.91-.84c.21.22.35.8.56.95.23.16,1.12.09,1.45.09.53,0,.89-.36.5-.69l-1.43-.11s-.03-.06-.04-.05c0,.01-.03-.04-.03-.05-.39-.6-.62-2.38-1.87-1.31-.9.77-2.11,1.4-1.48,2.23.08.1,1.55.91,1.73.97h0Zm.53-4.47c.08.56,1.36,2.1,2.13.98.35-.51-.05-1.12-.5-1.22-.52-.12-1.21.13-1.64.25h.01Zm-4.06,3.86c-1.1.19-2.13,1.35-1.78,2.73.7,2.81,4.92,2.02,4.43-1-.09-.58-.6-1.16-.93-1.38-.51-.33-.99-.49-1.73-.36h.01Z"/>
        <path class="cls-12" d="m133.77,38.52c-.17.11-.93.72-.99.97-.12.53.46.92.72,1.25l1.16,1.24c.33.28,1.55.04.13-1.3l-.93-1.02c-.18-.26-.08-.82-.08-1.14m-5,.35c-.75.26-.8,1-.49,1.51.46.76,1.53.63,1.83-.17.33-.88-.44-1.65-1.34-1.34Zm1.42-5.32c-.96.38-.51,1.91.62,1.54.89-.29.49-1.99-.62-1.54Zm-1.34,4.84c.34.12,1.36-.3,1.75-.4.62-.17.57-.39.9-1.31.24.2.73,1.08.87,1.33-.16.06-1.15.96-1.22,1.1-.16.34.1,1.64.13,2.1.03.39-.03.68.33.84.32.15.61-.07.67-.33l-.18-2.21c.3-.19,1.69-1.46,1.76-1.59l-.86-2.26h.88c.26.28.45.61.57.91l.91.15c.02-.45-.83-1.83-1.19-1.9-.27-.06-1.2-.01-1.54-.01-.53,0-.98-.07-1.3.25-.36.36-.66,1.89-.95,2.09-.4.27-2.4.35-1.5,1.24h-.03Z"/>
        <path class="cls-12" d="m141.48,14.09c-.37.17-.48.48-.34.81.12.27.45.44.83.32.68-.22.34-1.5-.48-1.13m3.79,0c-.79.33-.34,1.46.49,1.13.69-.28.26-1.45-.49-1.13Zm-4.78,4.29l-1.27.02c.07.13,0,.12.51.12,1.73,0,1.2.14,1.99-.59.42-.39.32-.4.86-.8l-.82-.11.14-.68,1.1.4c-.13.19-.29.34-.48.52l-1.04,1.05c-.15.16-.39.41-.53.52-.54.44-.3-.32-1.32.76l-1.02,1.08c.08.29.4.47.63.64l.82-.74c.13-.14.1-.14.26-.29.1-.08.48-.46.53-.52.18-.26,0-.52.23-.81.26-.33.51-.45.61-.45h3.18l1.45-1.42-.82-.03.17-.74,1.11.43-1.8,1.82c-.1.12-.16.17-.29.26-.34.25-.47.06-.79.25-.3.18-1.32,1.39-1.54,1.67.19.22.37.39.61.56.29-.1.84-.73,1.08-.98.14-.15.39-.33.53-.52.22-.29.04-.54.24-.8.33-.42.59-.53.68-.53l2.96-.03c-.08-.14-.08-.12-.52-.12h-.55c-.21-.37.27-.03-.81-1.05.06-.12.28-.31.44-.5.18.03.33.12.47-.02.19-.24-.04-.37,0-.45.02-.05.07-.11.16-.23.16-.23-.08-.13-.15-.08-.06.05-.11.13-.23.25-.39-.12-.86-.28-1.25-.42-1.08-.39-1.45-.65-1.73,1.11l-.08,1.38h-.62c-.24-.48.22-.14-.79-1.03.18-.34.32-.43.54-.47.35-.07.44.05.43-.33,0-.26-.16,0,.09-.31.2-.25.03-.27-.14-.16-.08.06-.16.14-.26.23-.42-.15-.82-.27-1.25-.42-1.27-.45-1.37-.52-1.69,1.1-.11.55-.34.97-.05,1.44l.02.02Z"/>
        <path class="cls-12" d="m130.16,18.77c-1.32.13-2.03-.1-2.14.24-.15.89.58.68,1.77.69.99,0,.8.13,1.45-.96l-.68-.61-.4.64h0Zm2.57-5.47c-.95.34-.35,1.75.57,1.39.84-.33.46-1.76-.57-1.39Zm-1.36,2.12c-.2.88-.96,1.69-.7,2.3.12.28,1.35,1.27,1.65,1.54-.27,1.11-.62,1.55-.69,1.92-.1.51.42,1,.8.46.18-.24.24-.64.36-.96l.51-1.65c-.13-.22-.91-.92-1.16-1.17l.85-1.88c1.54.31.4.44,2.39-.26.27-.09.57-.35.32-.68-.26-.34-1.24.21-1.58.33-.37.13-2.7-.76-3.23-.93-.57-.18-.57.07-1.32.73-.16.14-.48.38-.25.72.38.56.91-.4,1.31-.64.15-.09.54.07.76.17h-.02Z"/>
        <path class="cls-12" d="m125.65,26.24l.59.48s-.01,0-.01.02c0,.04-1.03.73-1.13.79.14.06.42.07.72.24.24.13.51.19.84.16.25-.03.48-.16.7-.27l.88-.12-.56-.62c-.11-.1-.18-.21-.28-.31-.24-.26-.72-.59-1.03-.81-.78-.54-.5-.53-1.6.11-.2.12-.65.31-.67.55-.01.18.09.32.24.35.18.04.34-.07.47-.15.28-.15.54-.28.83-.42"/>
        <path class="cls-12" d="m131.39,28.77c-.02-.14-.08-.11-.23-.1-.47.04-.53.15-.89.3-.44.18-.93.11-1.3-.08-1.27-.64-1.67.16-2.49.17-.86,0-1.26-.8-2.5-.18-.91.46-1.41,0-1.83-.14-.08-.03-.72-.18-.6.03.03.06.48.15.57.2.18.09.31.21.51.29.4.18.94.19,1.35.03.42-.16.73-.33,1.26-.15.46.16.57.36,1.21.37.61,0,.78-.2,1.21-.36.96-.36,1.49.64,2.65.1.18-.08.31-.2.48-.29.15-.08.49-.1.59-.2"/>
        <path class="cls-12" d="m124.62,27.75c-.52.06-.72.34-1.2.39-.67.07-.77-.14-1.26-.31-.12-.04-.61-.17-.63-.01-.01.13.24.07.56.23.41.2.54.4,1.12.44.65.04.76-.17,1.26-.29.57-.14.87.11,1.26.27.38.16.96.18,1.36.03.42-.16.65-.41,1.25-.33.38.05.6.32,1.25.32.79,0,.9-.35,1.43-.52.08-.02.26-.05.31-.08.15-.08.03-.15-.11-.15-.66,0-.86.44-1.61.4-.53-.02-.75-.29-1.19-.38-1.06-.22-1.46.72-2.57.26-.43-.18-.65-.34-1.23-.27"/>
        <path class="cls-12" d="m128.58,25.67c-1.02.17-.84,1.72.26,1.57.38-.05.73-.46.64-.93-.07-.38-.43-.72-.9-.64"/>
      </g>
    </g>
  </g>
</svg>