<?xml version="1.0" encoding="UTF-8"?>
<!DOCTYPE svg PUBLIC "-//W3C//DTD SVG 1.1//EN" "http://www.w3.org/Graphics/SVG/1.1/DTD/svg11.dtd">
<!-- Creator: CorelDRAW 2021 (64-Bit) -->
<svg xmlns="http://www.w3.org/2000/svg" xml:space="preserve" width="52.3671mm" height="51.7376mm" version="1.1" style="shape-rendering:geometricPrecision; text-rendering:geometricPrecision; image-rendering:optimizeQuality; fill-rule:evenodd; clip-rule:evenodd"
viewBox="0 0 70.2 69.36"
 xmlns:xlink="http://www.w3.org/1999/xlink"
 xmlns:xodm="http://www.corel.com/coreldraw/odm/2003">
 <defs>
  <style type="text/css">
   <![CDATA[
    .fil1 {fill:#373435}
    .fil0 {fill:#00B4BB}
   ]]>
  </style>
 </defs>
 <g id="Capa_x0020_1">
  <metadata id="CorelCorpID_0Corel-Layer"/>
  <circle class="fil0" cx="42.21" cy="30.09" r="27.99"/>
  <path class="fil1" d="M62.63 17.34l0 0c0.23,0.4 0.09,0.91 -0.3,1.14l-28.06 16.2 28.06 16.2c0.4,0.23 0.53,0.74 0.3,1.14l0 0c-0.23,0.4 -0.74,0.53 -1.14,0.3l-28.06 -16.2 0 32.41c0,0.46 -0.37,0.83 -0.83,0.83l0 0c-0.46,0 -0.83,-0.37 -0.83,-0.83l0 -32.41 -28.06 16.2c-0.4,0.23 -0.91,0.09 -1.14,-0.3l0 0c-0.23,-0.4 -0.09,-0.91 0.3,-1.14l28.06 -16.2 -28.06 -16.2c-0.4,-0.23 -0.53,-0.74 -0.3,-1.14l0 0c0.23,-0.4 0.74,-0.53 1.14,-0.3l28.06 16.2 0 -32.41c0,-0.46 0.37,-0.83 0.83,-0.83l0 0c0.46,0 0.83,0.37 0.83,0.83l0 32.41 28.06 -16.2c0.4,-0.23 0.91,-0.09 1.14,0.3z"/>
  <path class="fil1" d="M60.84 28.57c-1.56,-0.01 -6.19,-0.15 -7,-0 -0.65,0.12 -1.6,1.3 -2,1.83 -1.13,1.5 0.44,1.7 1.39,0.38 1,-1.24 0.91,-0.73 2.44,-0.86 -0.17,1.02 -0.5,1.74 -0.78,2.66 -0.37,1.25 -0.76,2.57 -1.16,3.8 -0.31,0.96 0.92,1.62 1.32,0.35l0.59 -1.56 1.18 -0.02 -1.73 6.45c-0.21,0.84 0.98,1.22 1.28,0.44l3.49 -12.09c2.02,0.01 1.72,0.25 2.91,-0.81 0.45,-0.4 0.69,-0.58 0.84,-0.72 0.9,-0.84 0.49,-2.33 -0.93,-1.08 -0.57,0.49 -0.99,1.24 -1.84,1.24zm-2.82 -3.63c-0.85,0.19 -1.44,0.8 -1.21,1.84 0.17,0.77 0.99,1.39 1.92,1.17 1.76,-0.42 1.45,-3.49 -0.71,-3.01zm-6.45 13.75c-2.38,0.96 -1.06,4.32 1.19,3.67 0.88,-0.25 1.59,-1.26 1.26,-2.44 -0.24,-0.85 -1.35,-1.67 -2.45,-1.23z"/>
  <path class="fil1" d="M38.61 56.41c-2.24,0.4 -4.33,2.74 -3.62,5.57 1.42,5.72 10.01,4.12 9.02,-2.04 -0.19,-1.17 -1.21,-2.36 -1.88,-2.8 -1.04,-0.68 -2.01,-0.99 -3.52,-0.72zm8.27 -7.86c0.16,1.14 2.77,4.28 4.34,1.99 0.71,-1.04 -0.11,-2.28 -1.01,-2.49 -1.05,-0.25 -2.46,0.27 -3.33,0.5zm-1.07 9.1c-0.31,1.19 -1.02,2.52 -1.25,3.65 -0.2,0.98 1.25,2.16 2.11,-0.23 1.77,-4.9 1.92,-3.98 -1.48,-5.84l1.85 -1.72c0.42,0.46 0.71,1.64 1.14,1.94 0.46,0.32 2.28,0.18 2.96,0.18 1.08,0 1.81,-0.73 1.03,-1.41l-2.92 -0.22c-0.02,-0.03 -0.06,-0.12 -0.07,-0.09 -0.01,0.02 -0.05,-0.07 -0.07,-0.09 -0.79,-1.22 -1.26,-4.85 -3.8,-2.66 -1.83,1.57 -4.29,2.85 -3.02,4.53 0.15,0.21 3.16,1.86 3.52,1.97zm5.1 -1.19c-3.75,0.96 -4.52,6.41 -1.18,8.33 1.07,0.61 2.2,1.01 3.69,0.58 2.14,-0.62 3.99,-2.87 3.23,-5.61 -0.62,-2.24 -2.8,-4.04 -5.74,-3.29zm0.38 1.06c-4.67,1.39 -2.46,7.93 1.8,6.78 4.47,-1.2 2.54,-8.07 -1.8,-6.78zm-12.75 0.02c-4.74,1.66 -2.2,7.97 1.9,6.73 1.79,-0.54 2.99,-2.38 2.45,-4.28 -0.46,-1.6 -2.27,-3.18 -4.35,-2.45z"/>
  <path class="fil1" d="M14.89 57.14c0.68,0.24 2.77,-0.61 3.55,-0.82 1.27,-0.35 1.17,-0.8 1.83,-2.66 0.49,0.4 1.48,2.21 1.76,2.72 -0.32,0.13 -2.35,1.95 -2.49,2.24 -0.33,0.69 0.19,3.33 0.26,4.27 0.06,0.79 -0.05,1.37 0.67,1.72 0.66,0.31 1.24,-0.14 1.37,-0.67l-0.37 -4.49c0.61,-0.39 3.43,-2.97 3.57,-3.24l-1.75 -4.6 1.79 -0c0.53,0.58 0.93,1.24 1.16,1.86l1.84 0.31c0.05,-0.92 -1.7,-3.72 -2.42,-3.87 -0.55,-0.12 -2.45,-0.03 -3.14,-0.03 -1.07,-0 -1.99,-0.15 -2.65,0.51 -0.72,0.73 -1.35,3.85 -1.94,4.25 -0.81,0.55 -4.88,0.71 -3.06,2.52zm2.72 -9.86c-1.95,0.78 -1.03,3.88 1.27,3.14 1.8,-0.59 0.99,-4.04 -1.27,-3.14zm-2.88 10.82c-1.52,0.53 -1.63,2.04 -1,3.08 0.95,1.55 3.11,1.28 3.72,-0.35 0.67,-1.79 -0.9,-3.37 -2.72,-2.73zm10.17 -0.71c-0.35,0.22 -1.9,1.46 -2.01,1.97 -0.25,1.08 0.93,1.88 1.46,2.54l2.36 2.53c0.68,0.56 3.16,0.09 0.26,-2.64l-1.9 -2.08c-0.36,-0.53 -0.17,-1.66 -0.17,-2.33z"/>
  <path class="fil1" d="M38.6 16.38l-2.58 0.04c0.14,0.27 0.02,0.25 1.04,0.25 3.52,0 2.45,0.29 4.06,-1.2 0.85,-0.78 0.65,-0.81 1.75,-1.63l-1.67 -0.23 0.28 -1.39 2.24 0.82c-0.27,0.39 -0.59,0.69 -0.98,1.05l-2.11 2.13c-0.31,0.32 -0.79,0.82 -1.07,1.06 -1.1,0.9 -0.61,-0.66 -2.69,1.55l-2.09 2.2c0.15,0.59 0.81,0.95 1.29,1.3l1.67 -1.5c0.27,-0.29 0.21,-0.29 0.54,-0.58 0.19,-0.17 0.99,-0.93 1.07,-1.06 0.37,-0.53 0.01,-1.06 0.47,-1.64 0.54,-0.67 1.03,-0.92 1.25,-0.92l6.48 0.02 2.95 -2.91 -1.67 -0.06 0.34 -1.52 2.26 0.87 -3.66 3.71c-0.21,0.25 -0.32,0.34 -0.59,0.53 -0.7,0.5 -0.96,0.13 -1.6,0.52 -0.61,0.37 -2.69,2.83 -3.13,3.4 0.38,0.44 0.76,0.79 1.24,1.14 0.58,-0.2 1.7,-1.48 2.19,-1.99 0.28,-0.3 0.79,-0.67 1.07,-1.05 0.44,-0.6 0.08,-1.09 0.5,-1.63 0.67,-0.85 1.2,-1.08 1.39,-1.09l6.02 -0.05c-0.16,-0.29 -0.17,-0.24 -1.06,-0.24l-1.12 -0c-0.43,-0.75 0.56,-0.05 -1.65,-2.13 0.13,-0.24 0.56,-0.63 0.9,-1.01 0.36,0.07 0.66,0.24 0.96,-0.03 0.38,-0.5 -0.08,-0.75 -0.01,-0.92 0.05,-0.1 0.14,-0.22 0.32,-0.47 0.34,-0.47 -0.17,-0.27 -0.3,-0.15 -0.11,0.1 -0.23,0.26 -0.47,0.5 -0.8,-0.24 -1.75,-0.57 -2.55,-0.86 -2.19,-0.8 -2.94,-1.32 -3.51,2.26l-0.17 2.82 -1.26 -0.01c-0.5,-0.96 0.45,-0.27 -1.61,-2.09 0.36,-0.69 0.66,-0.87 1.11,-0.96 0.72,-0.14 0.89,0.09 0.87,-0.67 -0.02,-0.52 -0.33,0.01 0.19,-0.64 0.41,-0.52 0.05,-0.55 -0.28,-0.32 -0.16,0.11 -0.33,0.29 -0.53,0.46 -0.85,-0.31 -1.66,-0.55 -2.54,-0.86 -2.59,-0.92 -2.78,-1.05 -3.43,2.23 -0.22,1.13 -0.69,1.98 -0.11,2.94zm9.72 -8.73c-1.6,0.68 -0.68,2.97 0.99,2.3 1.41,-0.57 0.53,-2.94 -0.99,-2.3zm-7.72 0.01c-0.76,0.34 -0.98,0.99 -0.7,1.66 0.24,0.56 0.92,0.9 1.68,0.65 1.39,-0.45 0.68,-3.05 -0.98,-2.31z"/>
  <path class="fil1" d="M20.03 10.36c-0.4,1.78 -1.96,3.44 -1.42,4.67 0.24,0.56 2.74,2.59 3.35,3.13 -0.55,2.25 -1.25,3.16 -1.4,3.91 -0.2,1.05 0.85,2.03 1.63,0.94 0.36,-0.5 0.48,-1.3 0.73,-1.95l1.04 -3.35c-0.27,-0.45 -1.86,-1.88 -2.37,-2.37l1.72 -3.84c3.13,0.63 0.82,0.9 4.87,-0.54 0.54,-0.19 1.16,-0.72 0.65,-1.38 -0.54,-0.69 -2.53,0.43 -3.22,0.68 -0.74,0.27 -5.5,-1.55 -6.58,-1.89 -1.15,-0.36 -1.16,0.13 -2.69,1.49 -0.33,0.29 -0.97,0.76 -0.5,1.46 0.77,1.13 1.86,-0.82 2.66,-1.29 0.31,-0.18 1.1,0.15 1.55,0.34zm2.77 -4.32c-1.94,0.7 -0.72,3.57 1.16,2.83 1.71,-0.67 0.94,-3.59 -1.16,-2.83zm-5.24 11.14c-2.7,0.26 -4.14,-0.2 -4.35,0.49 -0.3,1.82 1.19,1.39 3.61,1.4 2.02,0 1.63,0.26 2.95,-1.95l-1.39 -1.25 -0.81 1.31z"/>
  <path class="fil1" d="M8.37 32.39l1.2 0.98c-0.01,0.01 -0.02,0.01 -0.03,0.03 -0.02,0.07 -2.1,1.48 -2.29,1.61 0.29,0.11 0.85,0.14 1.46,0.48 0.48,0.27 1.05,0.39 1.7,0.32 0.5,-0.06 0.97,-0.33 1.43,-0.55l1.79 -0.25 -1.13 -1.25c-0.22,-0.2 -0.36,-0.42 -0.57,-0.64 -0.5,-0.52 -1.47,-1.21 -2.1,-1.64 -1.59,-1.1 -1.02,-1.08 -3.25,0.23 -0.41,0.24 -1.32,0.62 -1.36,1.12 -0.03,0.36 0.18,0.64 0.5,0.71 0.37,0.08 0.68,-0.15 0.96,-0.3 0.57,-0.3 1.09,-0.57 1.69,-0.86z"/>
  <path class="fil1" d="M20.06 37.53c-0.04,-0.27 -0.15,-0.23 -0.47,-0.2 -0.96,0.08 -1.07,0.31 -1.81,0.61 -0.89,0.36 -1.89,0.23 -2.65,-0.16 -2.59,-1.31 -3.39,0.33 -5.06,0.34 -1.75,0.01 -2.57,-1.63 -5.08,-0.36 -1.86,0.94 -2.86,-0 -3.73,-0.28 -0.17,-0.05 -1.47,-0.37 -1.22,0.07 0.07,0.12 0.98,0.31 1.16,0.41 0.36,0.18 0.63,0.42 1.03,0.6 0.81,0.36 1.9,0.38 2.75,0.05 0.86,-0.33 1.49,-0.67 2.56,-0.3 0.94,0.32 1.16,0.73 2.46,0.75 1.23,0.02 1.59,-0.4 2.47,-0.74 1.95,-0.73 3.03,1.3 5.4,0.21 0.37,-0.17 0.64,-0.4 0.99,-0.58 0.3,-0.15 1,-0.21 1.2,-0.42z"/>
  <path class="fil1" d="M6.28 35.47c-1.05,0.12 -1.46,0.7 -2.44,0.8 -1.36,0.13 -1.56,-0.29 -2.56,-0.64 -0.25,-0.09 -1.24,-0.34 -1.28,-0.02 -0.03,0.27 0.48,0.14 1.13,0.46 0.84,0.41 1.09,0.81 2.29,0.89 1.32,0.08 1.54,-0.35 2.56,-0.6 1.17,-0.28 1.77,0.23 2.57,0.56 0.76,0.32 1.96,0.37 2.76,0.07 0.85,-0.32 1.31,-0.83 2.54,-0.66 0.78,0.1 1.22,0.66 2.54,0.65 1.6,-0.02 1.83,-0.72 2.91,-1.06 0.15,-0.05 0.54,-0.1 0.63,-0.15 0.3,-0.16 0.07,-0.3 -0.22,-0.3 -1.33,0 -1.75,0.89 -3.27,0.82 -1.07,-0.05 -1.53,-0.59 -2.43,-0.78 -2.16,-0.45 -2.98,1.46 -5.23,0.52 -0.87,-0.36 -1.32,-0.69 -2.51,-0.56z"/>
  <path class="fil1" d="M14.35 31.24c-2.07,0.36 -1.71,3.49 0.53,3.21 0.78,-0.1 1.48,-0.94 1.31,-1.9 -0.14,-0.78 -0.88,-1.47 -1.84,-1.31z"/>
 </g>
</svg>
