<svg width="647" height="453" viewBox="0 0 647 453" fill="none" xmlns="http://www.w3.org/2000/svg">
<path fill-rule="evenodd" clip-rule="evenodd" d="M149.976 79.179C151.479 77.5662 179.491 83.6775 179.733 83.9448C190.652 84.8146 192.801 81.0591 191.42 70.3904C191.146 68.2476 189.531 66.9655 189.297 61.7286C186.545 60.1203 183.818 55.0872 190.109 54.6161C191.895 51.7983 201.953 52.1788 208.532 42.4705C211.773 37.6866 218.368 30.0033 224.575 29.6499C234.869 29.0655 242.814 26.1889 247.884 31.0589C251.404 34.443 262.74 47.2318 268.532 39.7206C275.407 30.7915 287.816 37.7001 299.75 39.2495C300.854 39.3899 307.284 42.8284 312.148 40.0513L319.994 66.6528L320.355 65.2711L320.713 63.8939L321.077 62.5122L321.438 61.1305L321.799 59.7488L322.163 58.367L322.526 56.9853L322.893 55.6036L323.194 54.4575L323.441 53.5287L323.807 52.147L324.174 50.7608L324.54 49.3791L324.814 48.3507L325.094 47.3042L325.463 45.918L325.832 44.5363L326.201 43.1499L326.446 42.244L326.758 41.0752L326.945 40.382L327.876 36.9209L328.063 36.2278L328.25 35.5347L328.999 32.7621L329.187 32.069L329.374 31.3759L329.561 30.6828L329.749 29.9896L329.939 29.2965L330.126 28.6034L330.316 27.9102L330.503 27.2172L330.693 26.524L330.88 25.8308L331.07 25.1332L331.26 24.4401L331.448 23.747L331.638 23.0538L331.828 22.3607C340.423 15.5427 347.382 5.8118 353.152 1.06409C361.501 -0.145483 355.136 16.2267 373.049 11.2616C377.644 9.99311 387.933 5.02341 388.756 17.3004C388.818 18.2381 371.635 26.7641 385.835 35.7611C385.93 35.82 389.043 50.0585 400.592 46.9644C401.335 46.7696 400.586 30.873 410.52 48.9124C412.154 51.8797 413.402 55.6896 418.993 54.0134C420.991 33.8765 418.421 44.0786 413.877 30.9274C414.705 30.4562 415.53 29.9896 416.361 29.5864C428.639 27.3711 436.836 28.173 438.261 39.8519C438.269 39.9154 442.94 52.6045 446.023 52.4686C445.803 50.2533 447.575 39.5756 446.27 31.3305C445.225 24.7526 458.429 30.2568 463.92 35.8925C468.599 40.6583 483.133 45.4241 486.487 39.2494C489.237 34.2163 498.942 38.1802 503.979 36.4316C506.463 35.5663 508.653 29.7223 509.305 35.0861C510.284 43.1408 513.937 45.6914 505.046 51.5309C501.792 55.6262 502.677 68.9768 497.577 75.2195C479.699 96.9647 477.392 74.6804 480.291 101.391C480.731 105.486 474.306 104.748 473.476 106.56C462.942 108.105 480.163 118.343 465.021 125.958C456.545 130.217 453.242 130.661 457.056 144.346C459.582 153.407 474.705 147.001 489.524 160.048C497.493 167.061 491.97 175.483 498.6 179.175C499.699 184.946 513.172 183.066 514.163 191.456C519.121 201.187 514.738 199.176 520.611 210.85C520.655 211.321 520.693 211.793 520.728 212.196C528.93 216.423 519.588 217.111 538.649 222.729C543.486 224.156 536.831 231.843 563.383 232.328C565.988 232.373 568.827 262.468 567.367 268.434C566.792 270.785 567.288 310.76 571.696 312.391C583.755 316.863 600.986 330.797 606.344 343.061C608.787 348.647 636.071 387.095 641.285 393.727C648.624 403.068 650.366 421.103 624.129 410.507C623.445 410.231 622.669 409.972 622.037 409.701C592.228 397.487 545.939 414.87 538.212 401.782C527.999 384.472 513.378 385.4 496.605 387.756C495.707 387.879 494.944 388.024 494.16 388.091C475.509 394.334 476.757 410.72 459.778 411.581C459.585 411.59 437.121 425.004 434.575 426.281C421.439 433.059 408.731 423.93 396.626 439.161C392.36 444.529 355.866 434.748 341.609 435.541C334.17 435.953 311.447 429.167 303.823 428.293C301.533 424.329 295.125 424.329 295.155 418.965C294.256 419.028 293.361 419.028 292.46 419.028C276.87 419.436 268.958 413.963 249.306 414.534C234.329 414.969 233.963 418.987 228.206 428.759C225.074 434.082 220.091 443.378 210.32 434.934C208.684 433.516 203.074 414.448 197.898 406.416C194.687 401.433 170.513 383.57 164.987 383.733C156.796 383.969 131.62 386.012 134.133 399.702C124.053 411.581 108.789 401.646 89.0956 409.098C82.0689 409.769 83.0459 420.17 78.2176 428.424C68.5798 444.801 54.0161 430.218 46.5876 440.706C32.2057 461.019 25.5561 451.383 17.0556 431.917C11.6383 419.509 15.9374 392.726 7.65946 385.808C8.03401 381.781 4.199 374.736 5.50719 360.24C6.25627 351.922 12.6805 342.037 6.91037 332.591C0.99636 322.915 3.80545 313.03 1.85674 309.573C1.68847 309.27 1.46049 308.966 1.31392 308.563C0.13058 295.946 2.41856 282.65 6.06359 270.446C7.1058 266.948 9.51863 261.589 9.73846 259.038C11.3181 252.325 10.9327 252.343 13.758 244.678C16.3771 237.579 16.6784 235.019 14.0104 229.039C11.6763 223.811 9.00294 219.58 16.2116 216.422C16.5101 216.291 16.8005 216.155 17.0882 216.019C17.6772 215.752 31.0467 214.986 37.585 213.134C51.6548 209.151 50.7158 208.001 62.0851 201.391C69.6411 196.997 75.2701 192.929 75.4981 185.349C75.5822 182.527 81.4935 173.267 82.5412 168.103C86.1319 162.667 90.602 161.054 97.4659 161.792C97.987 161.928 98.5109 162.127 99.0347 162.331C105.923 164.882 101.426 165.86 114.63 167.432C115.523 167.537 116.5 167.7 117.485 167.831C123.114 168.506 124.971 162.127 124.273 158.571C125.641 157.162 125.236 157.634 125.361 156.157C130.526 148.573 121.089 143.608 119.998 137.365C117.423 130.919 125.025 121.459 138.318 127.032C149.682 131.793 149.362 134.883 166.77 132.735C168.906 132.473 174.231 123.933 170.578 119.915C169.596 118.837 169.392 117.89 167.704 116.426C167.384 116.146 167.017 115.901 166.697 115.62C163.095 112.481 153.759 101.712 151.623 97.8343C151.503 97.6168 151.387 97.4311 151.316 97.1638C150.247 96.2261 150.811 96.8966 150.391 95.4197C150.136 95.3563 150.003 95.234 149.796 95.1524C148.13 94.4955 149.897 81.5257 149.976 79.179Z" fill="#00B5BD" stroke="#373435" stroke-width="1.88976"/>
</svg>
