<svg width="141" height="59" viewBox="0 0 141 59" fill="none" xmlns="http://www.w3.org/2000/svg">
<g id="Vector" filter="url(#filter0_d_0_4)">
<path fill-rule="evenodd" clip-rule="evenodd" d="M35.257 9.49395C35.5624 9.31873 41.2517 9.9827 41.3008 10.0117C43.5184 10.1062 43.955 9.69821 43.6744 8.53909C43.6187 8.30628 43.2907 8.16698 43.2433 7.598C42.6844 7.42327 42.1304 6.87644 43.4081 6.82525C43.7708 6.5191 45.8137 6.56045 47.1499 5.50567C47.8081 4.98591 49.1476 4.15114 50.4082 4.11274C52.4991 4.04925 54.1125 3.73671 55.1422 4.26582C55.8572 4.63349 58.1597 6.02296 59.336 5.2069C60.7323 4.23677 63.2525 4.98738 65.6763 5.15571C65.9007 5.17097 67.2065 5.54455 68.1943 5.24283L69.788 8.13301L69.8613 7.98289L69.934 7.83327L70.0079 7.68315L70.0812 7.53303L70.1545 7.38291L70.2284 7.23278L70.3023 7.08266L70.3767 6.93254L70.4379 6.80802L70.488 6.70711L70.5624 6.55699L70.6369 6.40638L70.7113 6.25626L70.7669 6.14454L70.8237 6.03083L70.8987 5.88022L70.9737 5.7301L71.0486 5.57948L71.0982 5.48105L71.1616 5.35406L71.1997 5.27875L71.3887 4.90271L71.4268 4.82741L71.4648 4.7521L71.6169 4.45087L71.655 4.37557L71.693 4.30026L71.731 4.22496L71.7691 4.14965L71.8077 4.07434L71.8457 3.99904L71.8843 3.92373L71.9223 3.84843L71.9609 3.77312L71.9989 3.69781L72.0375 3.62202L72.0761 3.54671L72.1142 3.4714L72.1527 3.39609L72.1913 3.32078C73.9371 2.58002 75.3505 1.52279 76.5224 1.00696C78.218 0.875546 76.9253 2.65435 80.5635 2.11489C81.4967 1.97708 83.5864 1.43713 83.7535 2.77099C83.7661 2.87288 80.2763 3.79921 83.1603 4.77671C83.1796 4.78311 83.8119 6.33008 86.1574 5.99392C86.3084 5.97275 86.1563 4.24562 88.1738 6.20556C88.5056 6.52795 88.7592 6.94189 89.8947 6.75978C90.3005 4.57195 89.7784 5.68038 88.8557 4.25153C89.0238 4.20034 89.1914 4.14964 89.3601 4.10584C91.8539 3.86515 93.5186 3.95228 93.808 5.22116C93.8096 5.22806 94.7583 6.6067 95.3845 6.59193C95.3398 6.35125 95.6998 5.19114 95.4347 4.29533C95.2224 3.58066 97.9042 4.17868 99.0193 4.79098C99.9697 5.30877 102.922 5.82657 103.603 5.1557C104.161 4.60887 106.132 5.03954 107.156 4.84955C107.66 4.75554 108.105 4.1206 108.237 4.70336C108.436 5.57849 109.178 5.85561 107.372 6.49005C106.711 6.935 106.891 8.38551 105.855 9.06376C102.224 11.4263 101.756 9.00519 102.344 11.9072C102.434 12.3521 101.129 12.2719 100.96 12.4688C98.8209 12.6366 102.318 13.749 99.2431 14.5764C97.5216 15.0391 96.8508 15.0873 97.6253 16.5742C98.1385 17.5586 101.21 16.8627 104.22 18.2802C105.838 19.0421 104.716 19.9571 106.063 20.3583C106.286 20.9853 109.023 20.781 109.224 21.6926C110.231 22.7498 109.341 22.5313 110.533 23.7997C110.542 23.8509 110.55 23.9021 110.557 23.9459C112.223 24.4051 110.326 24.4799 114.197 25.0903C115.179 25.2453 113.828 26.0806 119.22 26.1332C119.75 26.1381 120.326 29.4078 120.03 30.056C119.913 30.3115 120.014 34.6547 120.909 34.8319C123.358 35.3177 126.858 36.8317 127.946 38.164C128.442 38.7709 133.983 42.9482 135.042 43.6688C136.533 44.6837 136.887 46.6432 131.558 45.4919C131.419 45.4619 131.261 45.4338 131.133 45.4043C125.079 44.0773 115.678 45.9659 114.108 44.5439C112.034 42.6632 109.064 42.7641 105.658 43.0201C105.475 43.0334 105.32 43.0491 105.161 43.0565C101.373 43.7348 101.627 45.515 98.1781 45.6085C98.139 45.6095 93.5764 47.0669 93.0594 47.2057C90.3914 47.9421 87.8105 46.9503 85.352 48.605C84.4855 49.1883 77.0736 48.1257 74.1779 48.2118C72.667 48.2566 68.0521 47.5193 66.5037 47.4243C66.0384 46.9936 64.737 46.9936 64.743 46.4108C64.5606 46.4177 64.3787 46.4177 64.1957 46.4177C61.0294 46.462 59.4225 45.8674 55.431 45.9294C52.3893 45.9767 52.3149 46.4133 51.1458 47.475C50.5096 48.0533 49.4976 49.0633 47.5131 48.1458C47.1807 47.9918 46.0413 45.9201 44.9901 45.0474C44.338 44.506 39.4282 42.5653 38.3059 42.583C36.6423 42.6086 31.529 42.8306 32.0395 44.318C29.9922 45.6085 26.892 44.5292 22.8923 45.3388C21.4651 45.4117 21.6636 46.5418 20.6829 47.4385C18.7255 49.2178 15.7676 47.6334 14.2589 48.7729C11.3379 50.9799 9.98737 49.933 8.26091 47.818C7.16065 46.4699 8.0338 43.56 6.35254 42.8084C6.42861 42.3709 5.64972 41.6055 5.91541 40.0305C6.06755 39.1268 7.37233 38.0528 6.2004 37.0266C4.99926 35.9752 5.56979 34.9013 5.17401 34.5257C5.13983 34.4927 5.09353 34.4597 5.06376 34.4159C4.82342 33.0452 5.28811 31.6006 6.02842 30.2746C6.24009 29.8946 6.73014 29.3123 6.77479 29.0352C7.09561 28.3058 7.01733 28.3078 7.59117 27.4749C8.12311 26.7037 8.18429 26.4256 7.64243 25.7759C7.16837 25.2079 6.6254 24.7482 8.08948 24.4051C8.15012 24.3908 8.2091 24.3761 8.26753 24.3613C8.38715 24.3323 11.1025 24.2491 12.4304 24.0478C15.288 23.6151 15.0973 23.4901 17.4064 22.772C18.9411 22.2946 20.0843 21.8526 20.1306 21.0291C20.1477 20.7225 21.3483 19.7164 21.5611 19.1553C22.2904 18.5647 23.1982 18.3894 24.5923 18.4697C24.6981 18.4844 24.8045 18.5061 24.9109 18.5282C26.31 18.8053 25.3966 18.9117 28.0783 19.0825C28.2597 19.0938 28.4581 19.1115 28.6582 19.1258C29.8015 19.1991 30.1785 18.5061 30.0368 18.1197C30.3147 17.9666 30.2325 18.0178 30.2579 17.8574C31.3069 17.0334 29.3902 16.494 29.1686 15.8157C28.6455 15.1153 30.1895 14.0876 32.8895 14.693C35.1975 15.2103 35.1324 15.546 38.668 15.3127C39.1019 15.2842 40.1834 14.3564 39.4414 13.9198C39.2419 13.8026 39.2005 13.6998 38.8577 13.5408C38.7926 13.5103 38.7182 13.4837 38.6532 13.4532C37.9217 13.1121 36.0254 11.9421 35.5916 11.5208C35.5674 11.4972 35.5437 11.477 35.5293 11.448C35.3121 11.3461 35.4268 11.4189 35.3414 11.2585C35.2895 11.2516 35.2625 11.2383 35.2206 11.2294C34.8822 11.1581 35.2411 9.74891 35.257 9.49395Z" fill="#00B5BD" shape-rendering="crispEdges"/>
<path fill-rule="evenodd" clip-rule="evenodd" d="M35.257 9.49395C35.5624 9.31873 41.2517 9.9827 41.3008 10.0117C43.5184 10.1062 43.955 9.69821 43.6744 8.53909C43.6187 8.30628 43.2907 8.16698 43.2433 7.598C42.6844 7.42327 42.1304 6.87644 43.4081 6.82525C43.7708 6.5191 45.8137 6.56045 47.1499 5.50567C47.8081 4.98591 49.1476 4.15114 50.4082 4.11274C52.4991 4.04925 54.1125 3.73671 55.1422 4.26582C55.8572 4.63349 58.1597 6.02296 59.336 5.2069C60.7323 4.23677 63.2525 4.98738 65.6763 5.15571C65.9007 5.17097 67.2065 5.54455 68.1943 5.24283L69.788 8.13301L69.8613 7.98289L69.934 7.83327L70.0079 7.68315L70.0812 7.53303L70.1545 7.38291L70.2284 7.23278L70.3023 7.08266L70.3767 6.93254L70.4379 6.80802L70.488 6.70711L70.5624 6.55699L70.6369 6.40638L70.7113 6.25626L70.7669 6.14454L70.8237 6.03083L70.8987 5.88022L70.9737 5.7301L71.0486 5.57948L71.0982 5.48105L71.1616 5.35406L71.1997 5.27875L71.3887 4.90271L71.4268 4.82741L71.4648 4.7521L71.6169 4.45087L71.655 4.37557L71.693 4.30026L71.731 4.22496L71.7691 4.14965L71.8077 4.07434L71.8457 3.99904L71.8843 3.92373L71.9223 3.84843L71.9609 3.77312L71.9989 3.69781L72.0375 3.62202L72.0761 3.54671L72.1142 3.4714L72.1527 3.39609L72.1913 3.32078C73.9371 2.58002 75.3505 1.52279 76.5224 1.00696C78.218 0.875546 76.9253 2.65435 80.5635 2.11489C81.4967 1.97708 83.5864 1.43713 83.7535 2.77099C83.7661 2.87288 80.2763 3.79921 83.1603 4.77671C83.1796 4.78311 83.8119 6.33008 86.1574 5.99392C86.3084 5.97275 86.1563 4.24562 88.1738 6.20556C88.5056 6.52795 88.7592 6.94189 89.8947 6.75978C90.3005 4.57195 89.7784 5.68038 88.8557 4.25153C89.0238 4.20034 89.1914 4.14964 89.3601 4.10584C91.8539 3.86515 93.5186 3.95228 93.808 5.22116C93.8096 5.22806 94.7583 6.6067 95.3845 6.59193C95.3398 6.35125 95.6998 5.19114 95.4347 4.29533C95.2224 3.58066 97.9042 4.17868 99.0193 4.79098C99.9697 5.30877 102.922 5.82657 103.603 5.1557C104.161 4.60887 106.132 5.03954 107.156 4.84955C107.66 4.75554 108.105 4.1206 108.237 4.70336C108.436 5.57849 109.178 5.85561 107.372 6.49005C106.711 6.935 106.891 8.38551 105.855 9.06376C102.224 11.4263 101.756 9.00519 102.344 11.9072C102.434 12.3521 101.129 12.2719 100.96 12.4688C98.8209 12.6366 102.318 13.749 99.2431 14.5764C97.5216 15.0391 96.8508 15.0873 97.6253 16.5742C98.1385 17.5586 101.21 16.8627 104.22 18.2802C105.838 19.0421 104.716 19.9571 106.063 20.3583C106.286 20.9853 109.023 20.781 109.224 21.6926C110.231 22.7498 109.341 22.5313 110.533 23.7997C110.542 23.8509 110.55 23.9021 110.557 23.9459C112.223 24.4051 110.326 24.4799 114.197 25.0903C115.179 25.2453 113.828 26.0806 119.22 26.1332C119.75 26.1381 120.326 29.4078 120.03 30.056C119.913 30.3115 120.014 34.6547 120.909 34.8319C123.358 35.3177 126.858 36.8317 127.946 38.164C128.442 38.7709 133.983 42.9482 135.042 43.6688C136.533 44.6837 136.887 46.6432 131.558 45.4919C131.419 45.4619 131.261 45.4338 131.133 45.4043C125.079 44.0773 115.678 45.9659 114.108 44.5439C112.034 42.6632 109.064 42.7641 105.658 43.0201C105.475 43.0334 105.32 43.0491 105.161 43.0565C101.373 43.7348 101.627 45.515 98.1781 45.6085C98.139 45.6095 93.5764 47.0669 93.0594 47.2057C90.3914 47.9421 87.8105 46.9503 85.352 48.605C84.4855 49.1883 77.0736 48.1257 74.1779 48.2118C72.667 48.2566 68.0521 47.5193 66.5037 47.4243C66.0384 46.9936 64.737 46.9936 64.743 46.4108C64.5606 46.4177 64.3787 46.4177 64.1957 46.4177C61.0294 46.462 59.4225 45.8674 55.431 45.9294C52.3893 45.9767 52.3149 46.4133 51.1458 47.475C50.5096 48.0533 49.4976 49.0633 47.5131 48.1458C47.1807 47.9918 46.0413 45.9201 44.9901 45.0474C44.338 44.506 39.4282 42.5653 38.3059 42.583C36.6423 42.6086 31.529 42.8306 32.0395 44.318C29.9922 45.6085 26.892 44.5292 22.8923 45.3388C21.4651 45.4117 21.6636 46.5418 20.6829 47.4385C18.7255 49.2178 15.7676 47.6334 14.2589 48.7729C11.3379 50.9799 9.98737 49.933 8.26091 47.818C7.16065 46.4699 8.0338 43.56 6.35254 42.8084C6.42861 42.3709 5.64972 41.6055 5.91541 40.0305C6.06755 39.1268 7.37233 38.0528 6.2004 37.0266C4.99926 35.9752 5.56979 34.9013 5.17401 34.5257C5.13983 34.4927 5.09353 34.4597 5.06376 34.4159C4.82342 33.0452 5.28811 31.6006 6.02842 30.2746C6.24009 29.8946 6.73014 29.3123 6.77479 29.0352C7.09561 28.3058 7.01733 28.3078 7.59117 27.4749C8.12311 26.7037 8.18429 26.4256 7.64243 25.7759C7.16837 25.2079 6.6254 24.7482 8.08948 24.4051C8.15012 24.3908 8.2091 24.3761 8.26753 24.3613C8.38715 24.3323 11.1025 24.2491 12.4304 24.0478C15.288 23.6151 15.0973 23.4901 17.4064 22.772C18.9411 22.2946 20.0843 21.8526 20.1306 21.0291C20.1477 20.7225 21.3483 19.7164 21.5611 19.1553C22.2904 18.5647 23.1982 18.3894 24.5923 18.4697C24.6981 18.4844 24.8045 18.5061 24.9109 18.5282C26.31 18.8053 25.3966 18.9117 28.0783 19.0825C28.2597 19.0938 28.4581 19.1115 28.6582 19.1258C29.8015 19.1991 30.1785 18.5061 30.0368 18.1197C30.3147 17.9666 30.2325 18.0178 30.2579 17.8574C31.3069 17.0334 29.3902 16.494 29.1686 15.8157C28.6455 15.1153 30.1895 14.0876 32.8895 14.693C35.1975 15.2103 35.1324 15.546 38.668 15.3127C39.1019 15.2842 40.1834 14.3564 39.4414 13.9198C39.2419 13.8026 39.2005 13.6998 38.8577 13.5408C38.7926 13.5103 38.7182 13.4837 38.6532 13.4532C37.9217 13.1121 36.0254 11.9421 35.5916 11.5208C35.5674 11.4972 35.5437 11.477 35.5293 11.448C35.3121 11.3461 35.4268 11.4189 35.3414 11.2585C35.2895 11.2516 35.2625 11.2383 35.2206 11.2294C34.8822 11.1581 35.2411 9.74891 35.257 9.49395Z" stroke="#373435" stroke-opacity="0.75" shape-rendering="crispEdges"/>
</g>
<defs>
<filter id="filter0_d_0_4" x="0.499924" y="0.500069" width="140" height="58.0004" filterUnits="userSpaceOnUse" color-interpolation-filters="sRGB">
<feFlood flood-opacity="0" result="BackgroundImageFix"/>
<feColorMatrix in="SourceAlpha" type="matrix" values="0 0 0 0 0 0 0 0 0 0 0 0 0 0 0 0 0 0 127 0" result="hardAlpha"/>
<feOffset dy="4"/>
<feGaussianBlur stdDeviation="2"/>
<feComposite in2="hardAlpha" operator="out"/>
<feColorMatrix type="matrix" values="0 0 0 0 0 0 0 0 0 0 0 0 0 0 0 0 0 0 0.75 0"/>
<feBlend mode="normal" in2="BackgroundImageFix" result="effect1_dropShadow_0_4"/>
<feBlend mode="normal" in="SourceGraphic" in2="effect1_dropShadow_0_4" result="shape"/>
</filter>
</defs>
</svg>
