<svg width="32" height="47" viewBox="0 0 32 47" fill="none" xmlns="http://www.w3.org/2000/svg">
<path fill-rule="evenodd" clip-rule="evenodd" d="M16.0938 47L2.56305 22.3212C2.47872 22.1677 2.39208 22.0148 2.3065 21.8613L1.52122 20.4508C0.483486 18.5875 -0.204125 15.7199 0.0547299 13.6411C0.26217 11.9752 0.234237 11.3979 0.868299 9.68328C3.36968 2.91488 11.0019 -0.94466 18.7645 0.199455C26.3373 1.31562 32.3791 7.4214 31.9814 14.4205C31.8098 17.4415 30.5776 20.2617 29.0522 22.9246C27.7748 25.1553 26.5885 27.4274 25.3393 29.6709C22.8101 34.2137 20.1111 38.7058 17.8543 43.3648L16.0938 47ZM15.979 42.6323C18.199 38.0485 21.006 33.3466 23.51 28.8498C24.7717 26.5834 25.9815 24.3329 27.2335 22.0846C28.7064 19.584 29.634 17.0018 29.9389 14.3269C29.9389 7.90989 24.5862 2.91869 18.4331 2.0118C10.5936 0.856338 4.64742 5.28794 2.8093 10.2619C2.0612 12.2857 2.29693 12.1646 2.08735 13.8452C1.86052 15.6636 2.60097 18.1779 3.3505 19.6295L4.13614 21.04C4.23078 21.225 4.29501 21.3248 4.39819 21.5101L15.979 42.6323ZM15.8575 18.0396C15.8058 18.0396 15.7543 18.0391 15.7029 18.0378C15.6517 18.0367 15.6005 18.0348 15.5494 18.0326C15.4983 18.0302 15.4475 18.0274 15.3968 18.0239C15.346 18.0204 15.2957 18.0164 15.2454 18.0118C15.1952 18.0072 15.1448 18.0022 15.0948 17.9964C15.0449 17.9907 14.995 17.9845 14.9456 17.9776C14.8961 17.9707 14.8467 17.9634 14.7976 17.9556C14.7485 17.9477 14.6995 17.9393 14.6508 17.9303C14.602 17.9214 14.5535 17.9119 14.5053 17.9019C14.457 17.8918 14.4088 17.8813 14.361 17.8702C14.3131 17.8591 14.2656 17.8477 14.2183 17.8356C14.1708 17.8236 14.1236 17.811 14.0769 17.7979C14.0301 17.7848 13.9835 17.7712 13.937 17.7571C13.8908 17.7431 13.8445 17.7285 13.7986 17.7134C13.7527 17.6984 13.7072 17.6827 13.6618 17.6666C13.6164 17.6504 13.5716 17.6341 13.5268 17.617C13.4821 17.6001 13.4373 17.5825 13.3932 17.5646C13.349 17.5468 13.3051 17.5282 13.2615 17.5094C13.2177 17.4905 13.1745 17.4712 13.1315 17.4514C13.0886 17.4316 13.0457 17.4114 13.0034 17.3907C12.961 17.3701 12.9187 17.3488 12.8769 17.3273C12.8349 17.3057 12.7936 17.2836 12.7525 17.2611C12.7112 17.2386 12.6707 17.2159 12.6301 17.1926C12.5897 17.1693 12.5493 17.1455 12.5095 17.1213C12.4696 17.0971 12.4303 17.0726 12.3912 17.0475L12.2748 16.9713C12.2364 16.9456 12.1983 16.9194 12.1606 16.8927L12.0485 16.8118C12.0115 16.7843 11.9749 16.7565 11.9388 16.7284C11.9027 16.7002 11.8667 16.6717 11.8313 16.6427C11.7959 16.6138 11.7609 16.5846 11.7262 16.5549C11.6915 16.5252 11.6571 16.4951 11.6233 16.4648C11.5895 16.4344 11.5559 16.4036 11.523 16.3724C11.4899 16.3413 11.4573 16.3098 11.4251 16.278C11.3928 16.2461 11.3611 16.214 11.3298 16.1815C11.2985 16.1491 11.2673 16.116 11.2369 16.083C11.2063 16.0499 11.1764 16.0162 11.1467 15.9823C11.1172 15.9485 11.0878 15.9143 11.0592 15.8798C11.0304 15.8453 11.0021 15.8104 10.9743 15.7753C10.9464 15.7402 10.919 15.7049 10.8921 15.6691C10.8651 15.6334 10.8388 15.597 10.8128 15.5608C10.7868 15.5245 10.7616 15.4878 10.7365 15.4508C10.7114 15.4139 10.6868 15.3767 10.6628 15.3392C10.6388 15.3016 10.6151 15.2636 10.5922 15.2256C10.5692 15.1874 10.5466 15.1492 10.5246 15.1106C10.5025 15.0719 10.481 15.0329 10.46 14.9938C10.439 14.9545 10.4184 14.9154 10.3984 14.8756C10.3785 14.836 10.3589 14.7957 10.3401 14.7556C10.3211 14.7154 10.3029 14.6751 10.2849 14.6344C10.2671 14.5938 10.2495 14.5527 10.2328 14.5115C10.2159 14.4703 10.1997 14.4289 10.1841 14.3872C10.1684 14.3457 10.1533 14.3037 10.1387 14.2617C10.1241 14.2195 10.1102 14.1772 10.0967 14.1347C10.0834 14.092 10.0704 14.0495 10.0581 14.0066C10.0458 13.9637 10.0341 13.9203 10.0229 13.877C10.0117 13.8337 10.0012 13.7901 9.99121 13.7463C9.98125 13.7026 9.97182 13.6586 9.9631 13.6145C9.95439 13.5704 9.9462 13.5262 9.93855 13.4816C9.93108 13.4371 9.92397 13.3925 9.91756 13.3476C9.91116 13.3029 9.90564 13.2577 9.90048 13.2124C9.89532 13.1672 9.89088 13.122 9.88696 13.0765C9.88323 13.031 9.88002 12.9853 9.87735 12.9394C9.87469 12.8936 9.87273 12.8477 9.87148 12.8016C9.87024 12.7554 9.86953 12.7091 9.86953 12.6627C9.86953 12.6163 9.87024 12.5701 9.87148 12.5239C9.87273 12.4779 9.87469 12.4319 9.87735 12.3861C9.87985 12.3402 9.88305 12.2945 9.88696 12.249C9.89088 12.2035 9.89532 12.1583 9.90048 12.1131C9.90564 12.068 9.91116 12.0228 9.91756 11.9779C9.92379 11.933 9.9309 11.8883 9.93855 11.8439C9.9462 11.7993 9.95439 11.7551 9.9631 11.711C9.97182 11.6669 9.98125 11.6229 9.99121 11.5792C10.0012 11.5354 10.0117 11.4918 10.0229 11.4485C10.0341 11.4052 10.0458 11.3621 10.0581 11.3191C10.0704 11.2761 10.0834 11.2333 10.0967 11.1908C10.1102 11.1482 10.1241 11.1062 10.1387 11.064C10.1531 11.022 10.1684 10.9798 10.1841 10.9383C10.1997 10.8966 10.2161 10.8553 10.2328 10.8141C10.2497 10.7729 10.2671 10.7319 10.2849 10.6913C10.3027 10.6506 10.3212 10.6101 10.3401 10.5699C10.3589 10.5298 10.3785 10.4897 10.3984 10.4501C10.4185 10.4103 10.439 10.3708 10.46 10.3317C10.481 10.2926 10.5025 10.2537 10.5246 10.2151C10.5466 10.1764 10.5692 10.1379 10.5922 10.0999C10.6153 10.0619 10.6388 10.024 10.6628 9.98647C10.6868 9.94893 10.7114 9.91155 10.7365 9.87481C10.7614 9.83791 10.7868 9.801 10.8128 9.76474L10.8921 9.65659C10.919 9.62081 10.9466 9.58534 10.9743 9.5502C11.0021 9.51505 11.0304 9.48023 11.0592 9.44588C11.0878 9.41138 11.1172 9.37719 11.1467 9.34332C11.1764 9.30962 11.2063 9.27591 11.2369 9.24268C11.2675 9.20945 11.2985 9.17671 11.3298 9.14412C11.3613 9.11153 11.3929 9.07926 11.4251 9.04763C11.4573 9.01584 11.4899 8.98421 11.523 8.95322C11.5561 8.92222 11.5895 8.89123 11.6233 8.86088C11.6571 8.83053 11.6915 8.8005 11.7262 8.77078L11.8313 8.68292C11.8667 8.65401 11.9025 8.62525 11.9388 8.59714C11.9749 8.56886 12.0115 8.54138 12.0485 8.51391C12.0855 8.48643 12.1229 8.45943 12.1606 8.43291C12.1983 8.40624 12.2364 8.38004 12.2748 8.35432C12.3133 8.3286 12.352 8.3032 12.3912 8.27812C12.4303 8.2532 12.4696 8.22844 12.5095 8.20431C12.5493 8.18003 12.5896 8.15639 12.6301 8.13306L12.7525 8.06453C12.7936 8.04217 12.8351 8.01996 12.8769 7.9984C12.9187 7.97683 12.961 7.95558 13.0034 7.93498C13.0459 7.91437 13.0884 7.89408 13.1315 7.87427C13.1745 7.85446 13.2179 7.83513 13.2615 7.81628C13.3053 7.79743 13.3489 7.7789 13.3932 7.76101C13.4373 7.74312 13.4819 7.72554 13.5268 7.70861C13.5716 7.69152 13.6166 7.67522 13.6618 7.65909C13.7072 7.64311 13.7527 7.6273 13.7986 7.61228C13.8445 7.59711 13.8906 7.58257 13.937 7.56851C13.9833 7.55445 14.0301 7.54088 14.0769 7.52778C14.1238 7.51468 14.171 7.50222 14.2183 7.49007C14.2658 7.47809 14.3131 7.46643 14.361 7.45541C14.4087 7.44439 14.457 7.43384 14.5053 7.42378C14.5535 7.41371 14.602 7.40429 14.6508 7.39534C14.6995 7.3864 14.7485 7.37793 14.7976 7.3701C14.8467 7.36228 14.8959 7.35493 14.9456 7.34806C14.9952 7.34135 15.0449 7.33496 15.0948 7.32921C15.1447 7.32346 15.195 7.3185 15.2454 7.31387C15.2957 7.30924 15.346 7.30525 15.3968 7.30173C15.4475 7.29838 15.4983 7.2955 15.5494 7.2931C15.6005 7.29071 15.6515 7.28895 15.7029 7.28783C15.7543 7.28671 15.8059 7.28608 15.8575 7.28608C15.9091 7.28608 15.9607 7.28671 16.0121 7.28783C16.0634 7.28895 16.1146 7.29071 16.1657 7.2931C16.2167 7.29534 16.2676 7.29822 16.3183 7.30173C16.369 7.30525 16.4194 7.30924 16.4697 7.31387C16.5199 7.31834 16.5702 7.32346 16.6202 7.32921C16.6702 7.33496 16.72 7.34119 16.7695 7.34806C16.8189 7.35493 16.8684 7.36228 16.9175 7.3701C16.9666 7.37793 17.0155 7.3864 17.0643 7.39534C17.113 7.40429 17.1616 7.41371 17.2098 7.42378C17.258 7.43368 17.3061 7.44439 17.3539 7.45541C17.4018 7.46659 17.4494 7.47793 17.4968 7.49007C17.5441 7.50206 17.5914 7.51468 17.6382 7.52778C17.685 7.54088 17.7316 7.55445 17.778 7.56851C17.8245 7.58257 17.8706 7.59727 17.9163 7.61228C17.9622 7.6273 18.0077 7.64279 18.0531 7.65893C18.0985 7.6749 18.1435 7.69168 18.1883 7.70861C18.2329 7.72554 18.2776 7.74312 18.3217 7.76101C18.3658 7.77906 18.41 7.79743 18.4536 7.81628C18.4973 7.83513 18.5406 7.85446 18.5836 7.87427C18.6267 7.89408 18.6694 7.91421 18.7117 7.93498C18.754 7.95574 18.7962 7.97683 18.838 7.9984C18.8798 8.01996 18.9215 8.04201 18.9625 8.06437C19.0038 8.0869 19.0444 8.10974 19.0849 8.13306C19.1255 8.15639 19.1655 8.18019 19.2054 8.20431C19.2451 8.22844 19.2847 8.25304 19.3239 8.27796L19.4402 8.35416L19.5544 8.43275L19.6663 8.51375L19.7761 8.59714C19.8124 8.62541 19.8483 8.65385 19.8838 8.68276C19.9192 8.71168 19.9542 8.74091 19.9889 8.77062C20.0236 8.80034 20.0576 8.83037 20.0915 8.86088C20.1254 8.89123 20.1592 8.92207 20.1921 8.95306C20.2252 8.98405 20.2577 9.01568 20.2899 9.04747C20.3223 9.07926 20.354 9.11153 20.3853 9.14412C20.4168 9.17671 20.4477 9.20945 20.4781 9.24268C20.5087 9.27591 20.5388 9.3093 20.5683 9.34316L20.6559 9.44572L20.7407 9.5502C20.7687 9.58534 20.7957 9.62081 20.8227 9.65659C20.8496 9.69238 20.8761 9.72848 20.9021 9.76474C20.9279 9.80116 20.9537 9.83775 20.9786 9.87465C21.0037 9.91139 21.0281 9.94893 21.0521 9.98647C21.0761 10.024 21.0998 10.0617 21.1227 10.0999C21.1688 10.1761 21.2129 10.2533 21.2549 10.3317C21.2759 10.371 21.2965 10.4104 21.3164 10.4501C21.3364 10.4897 21.3558 10.5298 21.3748 10.5699L21.4301 10.6913C21.4659 10.7726 21.4995 10.855 21.5308 10.9383C21.5621 11.0216 21.5913 11.1058 21.6182 11.1908C21.645 11.276 21.6698 11.3618 21.692 11.4485C21.7032 11.4918 21.7137 11.5354 21.7237 11.5792C21.7336 11.6229 21.7431 11.6669 21.7518 11.711C21.7605 11.7551 21.7687 11.7993 21.7763 11.8439C21.7838 11.8884 21.7909 11.933 21.7973 11.9779C21.8037 12.0226 21.8092 12.0678 21.8144 12.1131C21.8196 12.1583 21.824 12.2035 21.8279 12.249C21.8317 12.2945 21.8349 12.3402 21.8375 12.3861C21.8402 12.4319 21.8422 12.4778 21.8434 12.5239C21.8446 12.5701 21.8454 12.6164 21.8454 12.6627C21.8454 12.7092 21.8448 12.7554 21.8436 12.8016C21.8423 12.8476 21.8402 12.8936 21.8377 12.9394C21.835 12.9853 21.8318 13.031 21.8281 13.0765C21.8242 13.122 21.8197 13.1672 21.8146 13.2124C21.8096 13.2575 21.8039 13.3027 21.7975 13.3476C21.7913 13.3925 21.784 13.4372 21.7765 13.4816C21.7689 13.526 21.7607 13.5704 21.752 13.6145C21.7432 13.6586 21.7338 13.7026 21.7238 13.7463C21.7139 13.7901 21.7034 13.8337 21.6922 13.877C21.681 13.9203 21.6692 13.9636 21.657 14.0066C21.6447 14.0495 21.6319 14.0922 21.6184 14.1347C21.605 14.1772 21.591 14.2197 21.5764 14.2617C21.5618 14.3039 21.5465 14.3455 21.5308 14.3872C21.5152 14.4288 21.499 14.4703 21.4823 14.5115C21.4655 14.5526 21.4479 14.5935 21.4301 14.6342C21.4122 14.6749 21.394 14.7154 21.375 14.7556C21.3561 14.7957 21.3365 14.8358 21.3166 14.8754C21.2969 14.915 21.2761 14.9547 21.2551 14.9938C21.2341 15.0331 21.2125 15.0719 21.1905 15.1106C21.1684 15.1492 21.146 15.1876 21.1229 15.2256C21.0999 15.2636 21.0763 15.3015 21.0522 15.339C21.0284 15.3766 21.0037 15.4138 20.9786 15.4508L20.9021 15.5608C20.8761 15.597 20.8498 15.6333 20.8229 15.6689C20.7961 15.7048 20.7687 15.7402 20.7407 15.7753C20.7128 15.8104 20.6847 15.8453 20.6559 15.8798C20.6272 15.9143 20.5981 15.9485 20.5683 15.9823C20.5388 16.0162 20.5086 16.0496 20.4781 16.0828L20.3853 16.1814C20.354 16.2138 20.3221 16.2462 20.2899 16.278C20.2577 16.3098 20.2252 16.3413 20.1921 16.3724C20.1592 16.4036 20.1255 16.4343 20.0917 16.4646C20.0577 16.4951 20.0236 16.5252 19.9889 16.5549C19.9542 16.5846 19.9192 16.6138 19.8838 16.6427C19.8483 16.6717 19.8124 16.7002 19.7761 16.7284C19.7398 16.7566 19.7034 16.7844 19.6664 16.8118C19.6293 16.8391 19.5922 16.8661 19.5544 16.8927L19.4402 16.9713C19.4018 16.9972 19.363 17.0226 19.3239 17.0475C19.2847 17.0725 19.2452 17.0971 19.2054 17.1212C19.1655 17.1455 19.1255 17.1691 19.0849 17.1924L18.9625 17.2611C18.9215 17.2835 18.8798 17.3055 18.838 17.3271C18.7962 17.3487 18.754 17.3698 18.7117 17.3905L18.5836 17.4512C18.5406 17.471 18.4971 17.4904 18.4536 17.5092C18.4098 17.5281 18.366 17.5466 18.3217 17.5645C18.2776 17.5824 18.2331 17.6 18.1883 17.6169C18.1435 17.634 18.0985 17.6506 18.0531 17.6666C17.9625 17.6987 17.8707 17.7289 17.778 17.757C17.7318 17.771 17.685 17.7846 17.6382 17.7977C17.5912 17.8108 17.5441 17.8233 17.4968 17.8354C17.4021 17.8595 17.3064 17.8817 17.2098 17.9017C17.1616 17.9118 17.113 17.9212 17.0643 17.9302C17.0155 17.9391 16.9666 17.9476 16.9175 17.9554C16.8684 17.9632 16.8191 17.9706 16.7695 17.9774C16.7198 17.9841 16.6702 17.9905 16.6202 17.9963C16.5704 18.002 16.5201 18.007 16.4697 18.0116C16.4194 18.0163 16.369 18.0203 16.3183 18.0238C16.2676 18.0271 16.2167 18.03 16.1657 18.0324C16.1146 18.0348 16.0635 18.0365 16.0121 18.0377C15.9607 18.0388 15.9091 18.0396 15.8575 18.0396Z" fill="#FF0000"/>
</svg>
