<svg width="41" height="58" viewBox="0 0 41 58" fill="none" xmlns="http://www.w3.org/2000/svg">
<g filter="url(#filter0_d_0_7)">
<path fill-rule="evenodd" clip-rule="evenodd" d="M20.9183 48.4082L7.38751 23.2043C7.30318 23.0475 7.21654 22.8913 7.13097 22.7346L6.34569 21.2941C5.30795 19.3912 4.62034 16.4625 4.87919 14.3395C5.08663 12.6382 5.0587 12.0485 5.69276 10.2975C8.19414 3.38507 15.8264 -0.556588 23.589 0.61187C31.1618 1.75179 37.2035 7.98747 36.8059 15.1355C36.6342 18.2207 35.402 21.101 33.8767 23.8205C32.5993 26.0987 31.413 28.4191 30.1637 30.7104C27.6346 35.3498 24.9356 39.9375 22.6788 44.6956L20.9183 48.4082ZM20.8035 43.9475C23.0234 39.2662 25.8304 34.4643 28.3345 29.8718C29.5962 27.5572 30.806 25.2588 32.0579 22.9626C33.5308 20.4089 34.4584 17.7718 34.7634 15.0398C34.7634 8.48636 29.4107 3.38896 23.2576 2.46278C15.4181 1.28273 9.47188 5.80862 7.63377 10.8884C6.88567 12.9553 7.12139 12.8316 6.91182 14.5479C6.68499 16.4051 7.42544 18.9728 8.17496 20.4554L8.9606 21.8958C9.05525 22.0847 9.11947 22.1867 9.22266 22.376L20.8035 43.9475ZM20.682 18.8316C20.6302 18.8316 20.5788 18.8311 20.5274 18.8298C20.4762 18.8286 20.4249 18.8267 20.3739 18.8244C20.3228 18.8219 20.2719 18.8192 20.2212 18.8156C20.1705 18.812 20.1202 18.8079 20.0698 18.8032C20.0196 18.7985 19.9693 18.7934 19.9193 18.7875C19.8693 18.7816 19.8195 18.7753 19.77 18.7683C19.7206 18.7613 19.6711 18.7538 19.622 18.7458C19.5729 18.7378 19.524 18.7291 19.4752 18.72C19.4265 18.7108 19.3779 18.7012 19.3297 18.6909C19.2815 18.6807 19.2333 18.6699 19.1854 18.6586C19.1376 18.6472 19.0901 18.6356 19.0428 18.6232C18.9953 18.611 18.9481 18.5981 18.9013 18.5847C18.8545 18.5714 18.8079 18.5575 18.7615 18.5431C18.7152 18.5288 18.669 18.5139 18.6231 18.4984C18.5772 18.4831 18.5316 18.4671 18.4863 18.4506C18.4409 18.4341 18.3961 18.4175 18.3512 18.4C18.3066 18.3828 18.2617 18.3648 18.2176 18.3465C18.1735 18.3283 18.1296 18.3093 18.086 18.2901C18.0422 18.2708 17.999 18.2511 17.9559 18.2309C17.913 18.2106 17.8702 18.1901 17.8278 18.1689C17.7855 18.1478 17.7431 18.1261 17.7013 18.1041C17.6593 18.0821 17.6181 18.0596 17.577 18.0366C17.5357 18.0136 17.4951 17.9904 17.4546 17.9666C17.4142 17.9427 17.3738 17.9184 17.334 17.8938C17.2941 17.869 17.2548 17.844 17.2156 17.8184L17.0993 17.7406C17.0609 17.7143 17.0228 17.6876 16.9851 17.6603L16.873 17.5776C16.836 17.5496 16.7993 17.5212 16.7632 17.4925C16.7271 17.4637 16.6912 17.4345 16.6558 17.405C16.6204 17.3755 16.5853 17.3456 16.5506 17.3153C16.5159 17.2849 16.4816 17.2543 16.4478 17.2233C16.414 17.1923 16.3804 17.1608 16.3475 17.129C16.3144 17.0971 16.2818 17.065 16.2496 17.0325C16.2172 16.9999 16.1856 16.9671 16.1543 16.934C16.1229 16.9009 16.0918 16.8671 16.0614 16.8333C16.0308 16.7996 16.0009 16.7651 15.9712 16.7306C15.9417 16.696 15.9123 16.6611 15.8837 16.6258C15.8548 16.5906 15.8265 16.555 15.7988 16.5191C15.7709 16.4832 15.7435 16.4472 15.7166 16.4106C15.6896 16.3742 15.6632 16.337 15.6373 16.3C15.6113 16.263 15.586 16.2254 15.5609 16.1878C15.5358 16.1501 15.5113 16.1121 15.4873 16.0737C15.4633 16.0354 15.4396 15.9966 15.4166 15.9577C15.3937 15.9187 15.3711 15.8797 15.349 15.8403C15.327 15.8008 15.3055 15.761 15.2845 15.721C15.2635 15.6809 15.2428 15.6409 15.2229 15.6003C15.203 15.5598 15.1834 15.5187 15.1646 15.4777C15.1455 15.4366 15.1274 15.3955 15.1094 15.3539C15.0916 15.3125 15.074 15.2705 15.0573 15.2284C15.0404 15.1864 15.0242 15.1441 15.0085 15.1015C14.9929 15.0591 14.9778 15.0162 14.9632 14.9733C14.9486 14.9302 14.9347 14.887 14.9212 14.8436C14.9078 14.8 14.8948 14.7566 14.8826 14.7127C14.8703 14.669 14.8586 14.6246 14.8473 14.5804C14.8361 14.5362 14.8256 14.4917 14.8157 14.447C14.8057 14.4023 14.7963 14.3574 14.7876 14.3124C14.7789 14.2673 14.7707 14.2222 14.763 14.1766C14.7555 14.1311 14.7484 14.0856 14.742 14.0398C14.7356 13.9941 14.7301 13.9479 14.7249 13.9017C14.7198 13.8556 14.7153 13.8094 14.7114 13.7629C14.7077 13.7164 14.7045 13.6697 14.7018 13.6229C14.6992 13.5761 14.6972 13.5293 14.6959 13.4821C14.6947 13.435 14.694 13.3877 14.694 13.3403C14.694 13.2929 14.6947 13.2457 14.6959 13.1986C14.6972 13.1516 14.6992 13.1046 14.7018 13.0578C14.7043 13.0109 14.7075 12.9643 14.7114 12.9178C14.7153 12.8713 14.7198 12.8251 14.7249 12.7789C14.7301 12.7329 14.7356 12.6868 14.742 12.6409C14.7483 12.5951 14.7554 12.5494 14.763 12.504C14.7707 12.4585 14.7789 12.4133 14.7876 12.3683C14.7963 12.3233 14.8057 12.2784 14.8157 12.2337C14.8256 12.189 14.8361 12.1445 14.8473 12.1003C14.8586 12.056 14.8703 12.012 14.8826 11.9681C14.8948 11.9242 14.9078 11.8805 14.9212 11.8371C14.9347 11.7935 14.9486 11.7506 14.9632 11.7076C14.9776 11.6646 14.9929 11.6216 15.0085 11.5792C15.0242 11.5366 15.0406 11.4945 15.0573 11.4524C15.0742 11.4103 15.0916 11.3684 15.1094 11.3269C15.1272 11.2853 15.1457 11.2441 15.1646 11.2029C15.1834 11.162 15.203 11.121 15.2229 11.0806C15.243 11.04 15.2635 10.9997 15.2845 10.9597C15.3055 10.9197 15.327 10.8801 15.349 10.8406C15.3711 10.8011 15.3937 10.7618 15.4166 10.723C15.4398 10.6841 15.4633 10.6455 15.4873 10.6071C15.5113 10.5688 15.5358 10.5306 15.5609 10.4931C15.5858 10.4554 15.6113 10.4177 15.6373 10.3807L15.7166 10.2702C15.7435 10.2337 15.771 10.1975 15.7988 10.1616C15.8265 10.1257 15.8548 10.0901 15.8837 10.055C15.9123 10.0198 15.9417 9.98488 15.9712 9.95029C16.0009 9.91586 16.0308 9.88144 16.0614 9.84751C16.092 9.81357 16.1229 9.78012 16.1543 9.74684C16.1857 9.71356 16.2174 9.68061 16.2496 9.6483C16.2818 9.61584 16.3144 9.58353 16.3475 9.55188C16.3806 9.52023 16.414 9.48858 16.4478 9.45758C16.4816 9.42658 16.5159 9.39591 16.5506 9.36557L16.6558 9.27584C16.6912 9.24631 16.7269 9.21694 16.7632 9.18822C16.7993 9.15935 16.836 9.13129 16.873 9.10322C16.91 9.07516 16.9474 9.04759 16.9851 9.02051C17.0228 8.99326 17.0609 8.96651 17.0993 8.94024C17.1377 8.91397 17.1765 8.88803 17.2156 8.86242C17.2548 8.83697 17.2941 8.81168 17.334 8.78704C17.3738 8.76225 17.414 8.7381 17.4546 8.71428L17.577 8.64429C17.6181 8.62145 17.6595 8.59877 17.7013 8.57675C17.7431 8.55472 17.7855 8.53302 17.8278 8.51198C17.8703 8.49093 17.9129 8.47021 17.9559 8.44998C17.999 8.42975 18.0424 8.41001 18.086 8.39076C18.1297 8.37151 18.1733 8.35258 18.2176 8.33431C18.2617 8.31604 18.3064 8.29809 18.3512 8.2808C18.3961 8.26334 18.4411 8.2467 18.4863 8.23022C18.5316 8.21391 18.5772 8.19775 18.6231 8.18242C18.669 8.16692 18.7151 8.15207 18.7615 8.13771C18.8077 8.12336 18.8545 8.10949 18.9013 8.09611C18.9483 8.08273 18.9954 8.07001 19.0428 8.05761C19.0903 8.04537 19.1376 8.03346 19.1854 8.02221C19.2331 8.01095 19.2815 8.00018 19.3297 7.9899C19.3779 7.97962 19.4265 7.97 19.4752 7.96086C19.524 7.95173 19.5729 7.94308 19.622 7.93509C19.6711 7.92709 19.7204 7.91959 19.77 7.91257C19.8197 7.90572 19.8693 7.89919 19.9193 7.89332C19.9691 7.88745 20.0195 7.88239 20.0698 7.87766C20.1202 7.87293 20.1705 7.86885 20.2212 7.86526C20.2719 7.86183 20.3228 7.85889 20.3739 7.85645C20.4249 7.854 20.476 7.85221 20.5274 7.85106C20.5788 7.84992 20.6304 7.84927 20.682 7.84927C20.7336 7.84927 20.7852 7.84992 20.8366 7.85106C20.8878 7.85221 20.9391 7.854 20.9901 7.85645C21.0412 7.85873 21.0921 7.86167 21.1428 7.86526C21.1935 7.86885 21.2438 7.87293 21.2942 7.87766C21.3443 7.88223 21.3947 7.88745 21.4447 7.89332C21.4947 7.89919 21.5445 7.90556 21.5939 7.91257C21.6434 7.91959 21.6929 7.92709 21.742 7.93509C21.7911 7.94308 21.84 7.95173 21.8887 7.96086C21.9375 7.97 21.9861 7.97962 22.0343 7.9899C22.0825 8.00002 22.1305 8.01095 22.1784 8.02221C22.2262 8.03363 22.2739 8.04521 22.3212 8.05761C22.3686 8.06985 22.4159 8.08273 22.4627 8.09611C22.5095 8.10949 22.5561 8.12336 22.6025 8.13771C22.6489 8.15207 22.695 8.16708 22.7407 8.18242C22.7866 8.19775 22.8322 8.21358 22.8776 8.23006C22.9229 8.24637 22.9679 8.2635 23.0128 8.2808C23.0574 8.29809 23.1021 8.31604 23.1462 8.33431C23.1903 8.35274 23.2344 8.37151 23.278 8.39076C23.3218 8.41001 23.365 8.42975 23.4081 8.44998C23.4511 8.47021 23.4938 8.49077 23.5362 8.51198C23.5785 8.53319 23.6207 8.55472 23.6625 8.57675C23.7043 8.59877 23.7459 8.62129 23.787 8.64413C23.8283 8.66713 23.8689 8.69046 23.9094 8.71428C23.95 8.7381 23.99 8.76241 24.0299 8.78704C24.0695 8.81168 24.1092 8.8368 24.1483 8.86226L24.2647 8.94008L24.3789 9.02035L24.4908 9.10306L24.6006 9.18822C24.6369 9.2171 24.6728 9.24614 24.7082 9.27567C24.7436 9.3052 24.7787 9.33506 24.8134 9.3654C24.8481 9.39575 24.882 9.42642 24.916 9.45758C24.9498 9.48858 24.9836 9.52007 25.0165 9.55172C25.0496 9.58337 25.0822 9.61567 25.1144 9.64814C25.1468 9.68061 25.1784 9.71356 25.2097 9.74684C25.2412 9.78012 25.2722 9.81357 25.3026 9.84751C25.3332 9.88144 25.3633 9.91554 25.3928 9.95013L25.4803 10.0549L25.5652 10.1616C25.5931 10.1975 25.6202 10.2337 25.6472 10.2702C25.6741 10.3068 25.7006 10.3436 25.7266 10.3807C25.7524 10.4179 25.7782 10.4552 25.8031 10.4929C25.8281 10.5304 25.8525 10.5688 25.8765 10.6071C25.9006 10.6455 25.9242 10.684 25.9472 10.723C25.9932 10.8008 26.0374 10.8796 26.0793 10.9597C26.1003 10.9998 26.121 11.0401 26.1409 11.0806C26.1608 11.121 26.1802 11.162 26.1993 11.2029L26.2546 11.3269C26.2903 11.41 26.324 11.4942 26.3553 11.5792C26.3866 11.6643 26.4158 11.7503 26.4426 11.8371C26.4695 11.9241 26.4942 12.0117 26.5165 12.1003C26.5277 12.1445 26.5382 12.189 26.5481 12.2337C26.5581 12.2784 26.5675 12.3233 26.5762 12.3683C26.585 12.4133 26.5931 12.4585 26.6008 12.504C26.6083 12.5496 26.6154 12.5951 26.6218 12.6409C26.6282 12.6866 26.6337 12.7328 26.6389 12.7789C26.644 12.8251 26.6485 12.8713 26.6524 12.9178C26.6561 12.9643 26.6593 13.0109 26.662 13.0578C26.6647 13.1046 26.6666 13.1514 26.6679 13.1986C26.6691 13.2457 26.6698 13.293 26.6698 13.3403C26.6698 13.3878 26.6693 13.435 26.668 13.4821C26.6668 13.5291 26.6647 13.5761 26.6622 13.6229C26.6595 13.6697 26.6563 13.7164 26.6526 13.7629C26.6487 13.8094 26.6442 13.8556 26.639 13.9017C26.6341 13.9477 26.6284 13.9939 26.622 14.0398C26.6157 14.0856 26.6084 14.1313 26.601 14.1766C26.5933 14.222 26.5851 14.2673 26.5764 14.3124C26.5677 14.3574 26.5583 14.4023 26.5483 14.447C26.5383 14.4917 26.5279 14.5362 26.5166 14.5804C26.5054 14.6246 26.4937 14.6689 26.4814 14.7127C26.4691 14.7566 26.4563 14.8002 26.4428 14.8436C26.4295 14.887 26.4154 14.9304 26.4008 14.9733C26.3862 15.0164 26.3709 15.0589 26.3553 15.1015C26.3396 15.1439 26.3234 15.1864 26.3067 15.2284C26.29 15.2704 26.2724 15.3121 26.2546 15.3537C26.2366 15.3954 26.2185 15.4366 26.1994 15.4777C26.1806 15.5187 26.161 15.5596 26.1411 15.6001C26.1213 15.6406 26.1005 15.681 26.0795 15.721C26.0585 15.7611 26.037 15.8008 26.0149 15.8403C25.9929 15.8797 25.9705 15.9189 25.9473 15.9577C25.9244 15.9966 25.9007 16.0352 25.8767 16.0736C25.8529 16.1119 25.8281 16.1499 25.8031 16.1878L25.7266 16.3C25.7006 16.337 25.6743 16.3741 25.6474 16.4105C25.6205 16.4472 25.5931 16.4832 25.5652 16.5191C25.5373 16.555 25.5092 16.5906 25.4803 16.6258C25.4517 16.6611 25.4225 16.696 25.3928 16.7306C25.3633 16.7651 25.333 16.7992 25.3026 16.8332L25.2097 16.9338C25.1784 16.967 25.1466 17.0001 25.1144 17.0325C25.0822 17.065 25.0496 17.0971 25.0165 17.129C24.9836 17.1608 24.95 17.1921 24.9162 17.2231C24.8822 17.2543 24.8481 17.2849 24.8134 17.3153C24.7787 17.3456 24.7436 17.3755 24.7082 17.405C24.6728 17.4345 24.6369 17.4637 24.6006 17.4925C24.5643 17.5213 24.5278 17.5497 24.4908 17.5776C24.4538 17.6055 24.4166 17.6331 24.3789 17.6603L24.2647 17.7406C24.2263 17.767 24.1875 17.793 24.1483 17.8184C24.1092 17.8439 24.0697 17.869 24.0299 17.8936C23.99 17.9184 23.95 17.9426 23.9094 17.9664L23.787 18.0366C23.7459 18.0594 23.7043 18.0819 23.6625 18.1039C23.6207 18.126 23.5785 18.1475 23.5362 18.1687L23.4081 18.2307C23.365 18.2509 23.3216 18.2707 23.278 18.2899C23.2343 18.3092 23.1905 18.3281 23.1462 18.3464C23.1021 18.3646 23.0576 18.3826 23.0128 18.3999C22.9679 18.4173 22.9229 18.4343 22.8776 18.4506C22.787 18.4834 22.6952 18.5142 22.6025 18.543C22.5563 18.5573 22.5095 18.5712 22.4627 18.5846C22.4157 18.5979 22.3686 18.6107 22.3212 18.6231C22.2266 18.6477 22.1309 18.6704 22.0343 18.6908C21.9861 18.7011 21.9375 18.7107 21.8887 18.7198C21.84 18.729 21.7911 18.7376 21.742 18.7456C21.6929 18.7536 21.6436 18.7611 21.5939 18.7681C21.5443 18.775 21.4947 18.7815 21.4447 18.7874C21.3949 18.7932 21.3445 18.7983 21.2942 18.803C21.2438 18.8078 21.1935 18.8118 21.1428 18.8154C21.0921 18.8188 21.0412 18.8218 20.9901 18.8242C20.9391 18.8267 20.888 18.8285 20.8366 18.8296C20.7852 18.8308 20.7336 18.8316 20.682 18.8316Z" fill="black"/>
<path fill-rule="evenodd" clip-rule="evenodd" d="M20.9183 48.4082L7.38751 23.2043C7.30318 23.0475 7.21654 22.8913 7.13097 22.7346L6.34569 21.2941C5.30795 19.3912 4.62034 16.4625 4.87919 14.3395C5.08663 12.6382 5.0587 12.0485 5.69276 10.2975C8.19414 3.38507 15.8264 -0.556588 23.589 0.61187C31.1618 1.75179 37.2035 7.98747 36.8059 15.1355C36.6342 18.2207 35.402 21.101 33.8767 23.8205C32.5993 26.0987 31.413 28.4191 30.1637 30.7104C27.6346 35.3498 24.9356 39.9375 22.6788 44.6956L20.9183 48.4082ZM20.8035 43.9475C23.0234 39.2662 25.8304 34.4643 28.3345 29.8718C29.5962 27.5572 30.806 25.2588 32.0579 22.9626C33.5308 20.4089 34.4584 17.7718 34.7634 15.0398C34.7634 8.48636 29.4107 3.38896 23.2576 2.46278C15.4181 1.28273 9.47188 5.80862 7.63377 10.8884C6.88567 12.9553 7.12139 12.8316 6.91182 14.5479C6.68499 16.4051 7.42544 18.9728 8.17496 20.4554L8.9606 21.8958C9.05525 22.0847 9.11947 22.1867 9.22266 22.376L20.8035 43.9475ZM20.682 18.8316C20.6302 18.8316 20.5788 18.8311 20.5274 18.8298C20.4762 18.8286 20.4249 18.8267 20.3739 18.8244C20.3228 18.8219 20.2719 18.8192 20.2212 18.8156C20.1705 18.812 20.1202 18.8079 20.0698 18.8032C20.0196 18.7985 19.9693 18.7934 19.9193 18.7875C19.8693 18.7816 19.8195 18.7753 19.77 18.7683C19.7206 18.7613 19.6711 18.7538 19.622 18.7458C19.5729 18.7378 19.524 18.7291 19.4752 18.72C19.4265 18.7108 19.3779 18.7012 19.3297 18.6909C19.2815 18.6807 19.2333 18.6699 19.1854 18.6586C19.1376 18.6472 19.0901 18.6356 19.0428 18.6232C18.9953 18.611 18.9481 18.5981 18.9013 18.5847C18.8545 18.5714 18.8079 18.5575 18.7615 18.5431C18.7152 18.5288 18.669 18.5139 18.6231 18.4984C18.5772 18.4831 18.5316 18.4671 18.4863 18.4506C18.4409 18.4341 18.3961 18.4175 18.3512 18.4C18.3066 18.3828 18.2617 18.3648 18.2176 18.3465C18.1735 18.3283 18.1296 18.3093 18.086 18.2901C18.0422 18.2708 17.999 18.2511 17.9559 18.2309C17.913 18.2106 17.8702 18.1901 17.8278 18.1689C17.7855 18.1478 17.7431 18.1261 17.7013 18.1041C17.6593 18.0821 17.6181 18.0596 17.577 18.0366C17.5357 18.0136 17.4951 17.9904 17.4546 17.9666C17.4142 17.9427 17.3738 17.9184 17.334 17.8938C17.2941 17.869 17.2548 17.844 17.2156 17.8184L17.0993 17.7406C17.0609 17.7143 17.0228 17.6876 16.9851 17.6603L16.873 17.5776C16.836 17.5496 16.7993 17.5212 16.7632 17.4925C16.7271 17.4637 16.6912 17.4345 16.6558 17.405C16.6204 17.3755 16.5853 17.3456 16.5506 17.3153C16.5159 17.2849 16.4816 17.2543 16.4478 17.2233C16.414 17.1923 16.3804 17.1608 16.3475 17.129C16.3144 17.0971 16.2818 17.065 16.2496 17.0325C16.2172 16.9999 16.1856 16.9671 16.1543 16.934C16.1229 16.9009 16.0918 16.8671 16.0614 16.8333C16.0308 16.7996 16.0009 16.7651 15.9712 16.7306C15.9417 16.696 15.9123 16.6611 15.8837 16.6258C15.8548 16.5906 15.8265 16.555 15.7988 16.5191C15.7709 16.4832 15.7435 16.4472 15.7166 16.4106C15.6896 16.3742 15.6632 16.337 15.6373 16.3C15.6113 16.263 15.586 16.2254 15.5609 16.1878C15.5358 16.1501 15.5113 16.1121 15.4873 16.0737C15.4633 16.0354 15.4396 15.9966 15.4166 15.9577C15.3937 15.9187 15.3711 15.8797 15.349 15.8403C15.327 15.8008 15.3055 15.761 15.2845 15.721C15.2635 15.6809 15.2428 15.6409 15.2229 15.6003C15.203 15.5598 15.1834 15.5187 15.1646 15.4777C15.1455 15.4366 15.1274 15.3955 15.1094 15.3539C15.0916 15.3125 15.074 15.2705 15.0573 15.2284C15.0404 15.1864 15.0242 15.1441 15.0085 15.1015C14.9929 15.0591 14.9778 15.0162 14.9632 14.9733C14.9486 14.9302 14.9347 14.887 14.9212 14.8436C14.9078 14.8 14.8948 14.7566 14.8826 14.7127C14.8703 14.669 14.8586 14.6246 14.8473 14.5804C14.8361 14.5362 14.8256 14.4917 14.8157 14.447C14.8057 14.4023 14.7963 14.3574 14.7876 14.3124C14.7789 14.2673 14.7707 14.2222 14.763 14.1766C14.7555 14.1311 14.7484 14.0856 14.742 14.0398C14.7356 13.9941 14.7301 13.9479 14.7249 13.9017C14.7198 13.8556 14.7153 13.8094 14.7114 13.7629C14.7077 13.7164 14.7045 13.6697 14.7018 13.6229C14.6992 13.5761 14.6972 13.5293 14.6959 13.4821C14.6947 13.435 14.694 13.3877 14.694 13.3403C14.694 13.2929 14.6947 13.2457 14.6959 13.1986C14.6972 13.1516 14.6992 13.1046 14.7018 13.0578C14.7043 13.0109 14.7075 12.9643 14.7114 12.9178C14.7153 12.8713 14.7198 12.8251 14.7249 12.7789C14.7301 12.7329 14.7356 12.6868 14.742 12.6409C14.7483 12.5951 14.7554 12.5494 14.763 12.504C14.7707 12.4585 14.7789 12.4133 14.7876 12.3683C14.7963 12.3233 14.8057 12.2784 14.8157 12.2337C14.8256 12.189 14.8361 12.1445 14.8473 12.1003C14.8586 12.056 14.8703 12.012 14.8826 11.9681C14.8948 11.9242 14.9078 11.8805 14.9212 11.8371C14.9347 11.7935 14.9486 11.7506 14.9632 11.7076C14.9776 11.6646 14.9929 11.6216 15.0085 11.5792C15.0242 11.5366 15.0406 11.4945 15.0573 11.4524C15.0742 11.4103 15.0916 11.3684 15.1094 11.3269C15.1272 11.2853 15.1457 11.2441 15.1646 11.2029C15.1834 11.162 15.203 11.121 15.2229 11.0806C15.243 11.04 15.2635 10.9997 15.2845 10.9597C15.3055 10.9197 15.327 10.8801 15.349 10.8406C15.3711 10.8011 15.3937 10.7618 15.4166 10.723C15.4398 10.6841 15.4633 10.6455 15.4873 10.6071C15.5113 10.5688 15.5358 10.5306 15.5609 10.4931C15.5858 10.4554 15.6113 10.4177 15.6373 10.3807L15.7166 10.2702C15.7435 10.2337 15.771 10.1975 15.7988 10.1616C15.8265 10.1257 15.8548 10.0901 15.8837 10.055C15.9123 10.0198 15.9417 9.98488 15.9712 9.95029C16.0009 9.91586 16.0308 9.88144 16.0614 9.84751C16.092 9.81357 16.1229 9.78012 16.1543 9.74684C16.1857 9.71356 16.2174 9.68061 16.2496 9.6483C16.2818 9.61584 16.3144 9.58353 16.3475 9.55188C16.3806 9.52023 16.414 9.48858 16.4478 9.45758C16.4816 9.42658 16.5159 9.39591 16.5506 9.36557L16.6558 9.27584C16.6912 9.24631 16.7269 9.21694 16.7632 9.18822C16.7993 9.15935 16.836 9.13129 16.873 9.10322C16.91 9.07516 16.9474 9.04759 16.9851 9.02051C17.0228 8.99326 17.0609 8.96651 17.0993 8.94024C17.1377 8.91397 17.1765 8.88803 17.2156 8.86242C17.2548 8.83697 17.2941 8.81168 17.334 8.78704C17.3738 8.76225 17.414 8.7381 17.4546 8.71428L17.577 8.64429C17.6181 8.62145 17.6595 8.59877 17.7013 8.57675C17.7431 8.55472 17.7855 8.53302 17.8278 8.51198C17.8703 8.49093 17.9129 8.47021 17.9559 8.44998C17.999 8.42975 18.0424 8.41001 18.086 8.39076C18.1297 8.37151 18.1733 8.35258 18.2176 8.33431C18.2617 8.31604 18.3064 8.29809 18.3512 8.2808C18.3961 8.26334 18.4411 8.2467 18.4863 8.23022C18.5316 8.21391 18.5772 8.19775 18.6231 8.18242C18.669 8.16692 18.7151 8.15207 18.7615 8.13771C18.8077 8.12336 18.8545 8.10949 18.9013 8.09611C18.9483 8.08273 18.9954 8.07001 19.0428 8.05761C19.0903 8.04537 19.1376 8.03346 19.1854 8.02221C19.2331 8.01095 19.2815 8.00018 19.3297 7.9899C19.3779 7.97962 19.4265 7.97 19.4752 7.96086C19.524 7.95173 19.5729 7.94308 19.622 7.93509C19.6711 7.92709 19.7204 7.91959 19.77 7.91257C19.8197 7.90572 19.8693 7.89919 19.9193 7.89332C19.9691 7.88745 20.0195 7.88239 20.0698 7.87766C20.1202 7.87293 20.1705 7.86885 20.2212 7.86526C20.2719 7.86183 20.3228 7.85889 20.3739 7.85645C20.4249 7.854 20.476 7.85221 20.5274 7.85106C20.5788 7.84992 20.6304 7.84927 20.682 7.84927C20.7336 7.84927 20.7852 7.84992 20.8366 7.85106C20.8878 7.85221 20.9391 7.854 20.9901 7.85645C21.0412 7.85873 21.0921 7.86167 21.1428 7.86526C21.1935 7.86885 21.2438 7.87293 21.2942 7.87766C21.3443 7.88223 21.3947 7.88745 21.4447 7.89332C21.4947 7.89919 21.5445 7.90556 21.5939 7.91257C21.6434 7.91959 21.6929 7.92709 21.742 7.93509C21.7911 7.94308 21.84 7.95173 21.8887 7.96086C21.9375 7.97 21.9861 7.97962 22.0343 7.9899C22.0825 8.00002 22.1305 8.01095 22.1784 8.02221C22.2262 8.03363 22.2739 8.04521 22.3212 8.05761C22.3686 8.06985 22.4159 8.08273 22.4627 8.09611C22.5095 8.10949 22.5561 8.12336 22.6025 8.13771C22.6489 8.15207 22.695 8.16708 22.7407 8.18242C22.7866 8.19775 22.8322 8.21358 22.8776 8.23006C22.9229 8.24637 22.9679 8.2635 23.0128 8.2808C23.0574 8.29809 23.1021 8.31604 23.1462 8.33431C23.1903 8.35274 23.2344 8.37151 23.278 8.39076C23.3218 8.41001 23.365 8.42975 23.4081 8.44998C23.4511 8.47021 23.4938 8.49077 23.5362 8.51198C23.5785 8.53319 23.6207 8.55472 23.6625 8.57675C23.7043 8.59877 23.7459 8.62129 23.787 8.64413C23.8283 8.66713 23.8689 8.69046 23.9094 8.71428C23.95 8.7381 23.99 8.76241 24.0299 8.78704C24.0695 8.81168 24.1092 8.8368 24.1483 8.86226L24.2647 8.94008L24.3789 9.02035L24.4908 9.10306L24.6006 9.18822C24.6369 9.2171 24.6728 9.24614 24.7082 9.27567C24.7436 9.3052 24.7787 9.33506 24.8134 9.3654C24.8481 9.39575 24.882 9.42642 24.916 9.45758C24.9498 9.48858 24.9836 9.52007 25.0165 9.55172C25.0496 9.58337 25.0822 9.61567 25.1144 9.64814C25.1468 9.68061 25.1784 9.71356 25.2097 9.74684C25.2412 9.78012 25.2722 9.81357 25.3026 9.84751C25.3332 9.88144 25.3633 9.91554 25.3928 9.95013L25.4803 10.0549L25.5652 10.1616C25.5931 10.1975 25.6202 10.2337 25.6472 10.2702C25.6741 10.3068 25.7006 10.3436 25.7266 10.3807C25.7524 10.4179 25.7782 10.4552 25.8031 10.4929C25.8281 10.5304 25.8525 10.5688 25.8765 10.6071C25.9006 10.6455 25.9242 10.684 25.9472 10.723C25.9932 10.8008 26.0374 10.8796 26.0793 10.9597C26.1003 10.9998 26.121 11.0401 26.1409 11.0806C26.1608 11.121 26.1802 11.162 26.1993 11.2029L26.2546 11.3269C26.2903 11.41 26.324 11.4942 26.3553 11.5792C26.3866 11.6643 26.4158 11.7503 26.4426 11.8371C26.4695 11.9241 26.4942 12.0117 26.5165 12.1003C26.5277 12.1445 26.5382 12.189 26.5481 12.2337C26.5581 12.2784 26.5675 12.3233 26.5762 12.3683C26.585 12.4133 26.5931 12.4585 26.6008 12.504C26.6083 12.5496 26.6154 12.5951 26.6218 12.6409C26.6282 12.6866 26.6337 12.7328 26.6389 12.7789C26.644 12.8251 26.6485 12.8713 26.6524 12.9178C26.6561 12.9643 26.6593 13.0109 26.662 13.0578C26.6647 13.1046 26.6666 13.1514 26.6679 13.1986C26.6691 13.2457 26.6698 13.293 26.6698 13.3403C26.6698 13.3878 26.6693 13.435 26.668 13.4821C26.6668 13.5291 26.6647 13.5761 26.6622 13.6229C26.6595 13.6697 26.6563 13.7164 26.6526 13.7629C26.6487 13.8094 26.6442 13.8556 26.639 13.9017C26.6341 13.9477 26.6284 13.9939 26.622 14.0398C26.6157 14.0856 26.6084 14.1313 26.601 14.1766C26.5933 14.222 26.5851 14.2673 26.5764 14.3124C26.5677 14.3574 26.5583 14.4023 26.5483 14.447C26.5383 14.4917 26.5279 14.5362 26.5166 14.5804C26.5054 14.6246 26.4937 14.6689 26.4814 14.7127C26.4691 14.7566 26.4563 14.8002 26.4428 14.8436C26.4295 14.887 26.4154 14.9304 26.4008 14.9733C26.3862 15.0164 26.3709 15.0589 26.3553 15.1015C26.3396 15.1439 26.3234 15.1864 26.3067 15.2284C26.29 15.2704 26.2724 15.3121 26.2546 15.3537C26.2366 15.3954 26.2185 15.4366 26.1994 15.4777C26.1806 15.5187 26.161 15.5596 26.1411 15.6001C26.1213 15.6406 26.1005 15.681 26.0795 15.721C26.0585 15.7611 26.037 15.8008 26.0149 15.8403C25.9929 15.8797 25.9705 15.9189 25.9473 15.9577C25.9244 15.9966 25.9007 16.0352 25.8767 16.0736C25.8529 16.1119 25.8281 16.1499 25.8031 16.1878L25.7266 16.3C25.7006 16.337 25.6743 16.3741 25.6474 16.4105C25.6205 16.4472 25.5931 16.4832 25.5652 16.5191C25.5373 16.555 25.5092 16.5906 25.4803 16.6258C25.4517 16.6611 25.4225 16.696 25.3928 16.7306C25.3633 16.7651 25.333 16.7992 25.3026 16.8332L25.2097 16.9338C25.1784 16.967 25.1466 17.0001 25.1144 17.0325C25.0822 17.065 25.0496 17.0971 25.0165 17.129C24.9836 17.1608 24.95 17.1921 24.9162 17.2231C24.8822 17.2543 24.8481 17.2849 24.8134 17.3153C24.7787 17.3456 24.7436 17.3755 24.7082 17.405C24.6728 17.4345 24.6369 17.4637 24.6006 17.4925C24.5643 17.5213 24.5278 17.5497 24.4908 17.5776C24.4538 17.6055 24.4166 17.6331 24.3789 17.6603L24.2647 17.7406C24.2263 17.767 24.1875 17.793 24.1483 17.8184C24.1092 17.8439 24.0697 17.869 24.0299 17.8936C23.99 17.9184 23.95 17.9426 23.9094 17.9664L23.787 18.0366C23.7459 18.0594 23.7043 18.0819 23.6625 18.1039C23.6207 18.126 23.5785 18.1475 23.5362 18.1687L23.4081 18.2307C23.365 18.2509 23.3216 18.2707 23.278 18.2899C23.2343 18.3092 23.1905 18.3281 23.1462 18.3464C23.1021 18.3646 23.0576 18.3826 23.0128 18.3999C22.9679 18.4173 22.9229 18.4343 22.8776 18.4506C22.787 18.4834 22.6952 18.5142 22.6025 18.543C22.5563 18.5573 22.5095 18.5712 22.4627 18.5846C22.4157 18.5979 22.3686 18.6107 22.3212 18.6231C22.2266 18.6477 22.1309 18.6704 22.0343 18.6908C21.9861 18.7011 21.9375 18.7107 21.8887 18.7198C21.84 18.729 21.7911 18.7376 21.742 18.7456C21.6929 18.7536 21.6436 18.7611 21.5939 18.7681C21.5443 18.775 21.4947 18.7815 21.4447 18.7874C21.3949 18.7932 21.3445 18.7983 21.2942 18.803C21.2438 18.8078 21.1935 18.8118 21.1428 18.8154C21.0921 18.8188 21.0412 18.8218 20.9901 18.8242C20.9391 18.8267 20.888 18.8285 20.8366 18.8296C20.7852 18.8308 20.7336 18.8316 20.682 18.8316Z" stroke="black" stroke-width="0.3"/>
</g>
<defs>
<filter id="filter0_d_0_7" x="0.674484" y="0.258283" width="40.3" height="57.4825" filterUnits="userSpaceOnUse" color-interpolation-filters="sRGB">
<feFlood flood-opacity="0" result="BackgroundImageFix"/>
<feColorMatrix in="SourceAlpha" type="matrix" values="0 0 0 0 0 0 0 0 0 0 0 0 0 0 0 0 0 0 127 0" result="hardAlpha"/>
<feOffset dy="5"/>
<feGaussianBlur stdDeviation="2"/>
<feComposite in2="hardAlpha" operator="out"/>
<feColorMatrix type="matrix" values="0 0 0 0 0 0 0 0 0 0 0 0 0 0 0 0 0 0 0.75 0"/>
<feBlend mode="normal" in2="BackgroundImageFix" result="effect1_dropShadow_0_7"/>
<feBlend mode="normal" in="SourceGraphic" in2="effect1_dropShadow_0_7" result="shape"/>
</filter>
</defs>
</svg>
