<svg width="43" height="50" viewBox="0 0 43 50" fill="none" xmlns="http://www.w3.org/2000/svg">
<rect width="43" height="50" fill="white"/>
<path id="Vector" fill-rule="evenodd" clip-rule="evenodd" d="M4.28953 28.2176C6.20663 28.8942 12.0989 26.4979 14.2979 25.9058C17.8784 24.9191 17.5964 23.6504 19.4571 18.4066C20.8386 19.5343 23.6296 24.6372 24.419 26.075C23.5169 26.4415 17.7938 31.5725 17.3991 32.3901C16.4687 34.3354 17.9347 41.7783 18.1321 44.4284C18.3012 46.6556 17.9911 48.2907 20.021 49.2775C21.8817 50.1515 23.5169 48.8828 23.8834 47.3886L22.8402 34.7301C24.56 33.6306 32.5103 26.3569 32.905 25.5957L27.9713 12.6271H33.0178C34.512 14.2623 35.6397 16.123 36.2881 17.871L41.4755 18.7449C41.6165 16.1512 36.6828 8.25728 34.6529 7.83439C33.1023 7.49608 27.7458 7.74982 25.8005 7.74982C22.7839 7.74982 20.1901 7.32693 18.3294 9.18764C16.2996 11.2457 14.5234 20.0418 12.8601 21.1695C10.5765 22.7201 -0.897903 23.1712 4.23315 28.274L4.28953 28.2176ZM11.9579 0.419745C6.46036 2.61877 9.05407 11.3585 15.5384 9.27221C20.613 7.60885 18.3294 -2.11759 11.9579 0.419745ZM3.83845 30.9241C-0.446823 32.4183 -0.756941 36.6754 1.01919 39.6074C3.69749 43.9773 9.78709 43.2161 11.5068 38.6207C13.3957 33.5742 8.9695 29.1198 3.83845 30.9241ZM32.5103 28.9224C31.5236 29.5427 27.1537 33.0386 26.8436 34.4764C26.1388 37.5212 29.4655 39.7766 30.9597 41.6373L37.6131 48.77C39.5302 50.3488 46.522 49.0237 38.3462 41.3272L32.9896 35.4631C31.9746 33.9689 32.5103 30.7832 32.5103 28.8942V28.9224Z" fill="#373435"/>
</svg>
