<svg width="62" height="50" viewBox="0 0 62 50" fill="none" xmlns="http://www.w3.org/2000/svg">
<path fill-rule="evenodd" clip-rule="evenodd" d="M10.6032 23.7562C4.28804 24.8839 -1.60421 31.481 0.397464 39.4595C4.40081 55.5856 28.6182 51.0748 25.8272 33.7082C25.2915 30.4096 22.4159 27.0547 20.527 25.8143C17.5949 23.8972 14.8603 23.0232 10.6032 23.7844V23.7562ZM33.9184 1.59684C34.3695 4.81079 41.7278 13.6633 46.154 7.20717C48.1557 4.27514 45.8439 0.779255 43.3066 0.187211C40.3463 -0.517604 36.3712 0.94841 33.9184 1.59684ZM30.9018 27.2521C30.0279 30.607 28.0262 34.3566 27.3778 37.5424C26.8139 40.3052 30.9018 43.632 33.3264 36.8939C38.3165 23.0796 38.7394 25.6733 29.1539 20.4295L34.3695 15.5804C35.5536 16.8772 36.3712 20.2039 37.5835 21.0497C38.8803 21.9519 44.0114 21.5572 45.9285 21.5572C48.9733 21.5572 51.0313 19.4991 48.8323 17.582L40.6001 16.9618C40.5437 16.8772 40.4309 16.6235 40.4027 16.7081C40.3745 16.7644 40.2618 16.5107 40.2054 16.4543C37.9782 13.0148 36.6531 2.78093 29.4922 8.9551C24.333 13.3813 17.3976 16.99 20.978 21.7263C21.4009 22.3184 29.8869 26.9702 30.9018 27.2803V27.2521ZM45.28 23.8972C34.7078 26.6037 32.537 41.9686 41.9533 47.3816C44.9699 49.1013 48.1557 50.229 52.3564 49.0168C58.3896 47.2688 63.6052 40.9255 61.4626 33.2007C59.7146 26.8856 53.5686 21.8109 45.28 23.9254V23.8972ZM46.3514 26.8856C33.1854 30.8043 39.416 49.2423 51.426 46.0002C64.0281 42.617 58.5869 23.2487 46.3514 26.8856ZM10.4058 26.942C-2.95745 31.6219 4.20345 49.4114 15.7624 45.9156C20.8089 44.3932 24.192 39.2057 22.6696 33.8491C21.3727 29.3383 16.2699 24.8839 10.4058 26.942Z" fill="#373435"/>
</svg>
