<svg width="45" height="50" viewBox="0 0 45 50" fill="none" xmlns="http://www.w3.org/2000/svg">
<path fill-rule="evenodd" clip-rule="evenodd" d="M19.3351 12.5322C18.2074 17.5505 13.8094 22.2305 15.3318 25.6982C16.0084 27.277 23.0565 33.0001 24.7763 34.5225C23.2257 40.8658 21.2522 43.4313 20.8293 45.5458C20.2655 48.506 23.2257 51.2688 25.4247 48.1959C26.4396 46.7862 26.778 44.5308 27.4828 42.6983L30.4148 33.2538C29.6536 31.9851 25.171 27.9536 23.7332 26.5722L28.5823 15.7462C37.4066 17.5223 30.8941 18.2835 42.3121 14.2238C43.8345 13.6881 45.5824 12.1939 44.1446 10.3332C42.6222 8.38794 37.0119 11.5455 35.0666 12.2503C32.9803 13.0115 19.5607 7.88048 16.5159 6.92193C13.2737 5.907 13.2455 7.28843 8.93206 11.1226C8.0017 11.9402 6.19738 13.2653 7.52243 15.2387C9.69326 18.4245 12.7662 12.9269 15.0217 11.6019C15.8956 11.0944 18.1228 12.0248 19.3915 12.5604L19.3351 12.5322ZM27.1445 0.353058C21.6751 2.32654 25.1146 10.4178 30.4148 8.33156C35.2357 6.44265 33.0649 -1.78958 27.1445 0.353058ZM12.3716 31.7596C4.75956 32.4926 0.699828 31.1957 0.107784 33.141C-0.737993 38.2721 3.4627 37.0598 10.2853 37.088C15.9802 37.088 14.8807 37.821 18.6021 31.5904L14.6833 28.0664L12.3997 31.7596H12.3716Z" fill="#373435"/>
</svg>
