<svg width="39" height="50" viewBox="0 0 39 50" fill="none" xmlns="http://www.w3.org/2000/svg">
<path fill-rule="evenodd" clip-rule="evenodd" d="M29.6942 10.3771C25.2962 10.3489 12.243 9.95419 9.95944 10.3771C8.12692 10.7154 5.44863 14.0421 4.32092 15.5363C1.13516 19.7652 5.5614 20.3291 8.23969 16.6076C11.0589 13.1118 10.8052 14.5496 15.1187 14.1831C14.6394 17.0587 13.709 19.0886 12.9197 21.6823C11.8765 25.2064 10.777 28.9278 9.64932 32.3955C8.77535 35.102 12.243 36.9627 13.3707 33.3822L15.0341 28.9842L18.3608 28.9278L13.4835 47.112C12.8915 49.4802 16.2464 50.5515 17.0922 48.3525L26.9314 14.2677C32.6263 14.2958 31.7805 14.9725 35.1354 11.9841C36.4041 10.8563 37.0807 10.3489 37.5036 9.95419C40.0409 7.58601 38.885 3.38532 34.8817 6.90939C33.2747 8.29083 32.0906 10.4053 29.6942 10.4053V10.3771ZM21.7439 0.143175C19.3476 0.678834 17.6842 2.39858 18.3326 5.33061C18.8119 7.50144 21.1237 9.24938 23.7456 8.62914C28.7075 7.44505 27.8335 -1.21007 21.7439 0.143175ZM3.55972 38.908C-3.15011 41.6144 0.571307 51.0872 6.91464 49.2546C9.39558 48.5498 11.3973 45.7024 10.4669 42.3756C9.79028 39.9793 6.66091 37.6675 3.55972 38.908Z" fill="#373435"/>
</svg>
