<svg width="57" height="25" viewBox="0 0 57 25" fill="none" xmlns="http://www.w3.org/2000/svg">
<path fill-rule="evenodd" clip-rule="evenodd" d="M23.6007 5.31573L26.9838 8.0786C26.9556 8.10679 26.9274 8.1068 26.8993 8.16319C26.8429 8.36053 20.9788 12.3357 20.4432 12.7022C21.2607 13.0123 22.8395 13.0969 24.5593 14.0554C25.9125 14.8166 27.5195 15.1549 29.352 14.9576C30.7616 14.7884 32.0867 14.0272 33.3835 13.407L38.43 12.7022L35.2443 9.17811C34.624 8.61426 34.2293 7.99402 33.6373 7.37379C32.2276 5.90777 29.493 3.96249 27.7168 2.75021C23.2342 -0.350977 24.8412 -0.294593 18.5542 3.39863C17.3984 4.07526 14.8328 5.14658 14.7201 6.55621C14.6355 7.57114 15.2275 8.36053 16.1297 8.55788C17.1728 8.78342 18.0468 8.13499 18.8362 7.7121C20.4431 6.86633 21.9092 6.10513 23.6007 5.28754V5.31573Z" fill="#373435"/>
<path fill-rule="evenodd" clip-rule="evenodd" d="M56.5578 19.8067C56.4451 19.0455 56.135 19.1583 55.2328 19.2429C52.5263 19.4684 52.2162 20.1168 50.1299 20.9626C47.6208 21.9775 44.8015 21.611 42.6589 20.5115C35.357 16.8183 33.1016 21.4419 28.3935 21.4701C23.4598 21.4983 21.148 16.8747 14.0716 20.4551C8.82782 23.1052 6.00857 20.4551 3.55581 19.6658C3.07654 19.5248 -0.588497 18.6226 0.116318 19.8631C0.313666 20.2014 2.87919 20.7371 3.38666 21.019C4.40159 21.5265 5.16279 22.2031 6.29049 22.7106C8.57409 23.7255 11.6471 23.7819 14.0434 22.8515C16.468 21.9212 18.2441 20.9626 21.2607 22.0057C23.9108 22.9079 24.5311 24.0638 28.1961 24.1202C31.6638 24.1766 32.6787 22.9925 35.1597 22.0339C40.6572 19.9759 43.702 25.699 50.3837 22.626C51.4268 22.1467 52.188 21.4983 53.1747 20.9908C54.0205 20.5679 55.994 20.3988 56.5578 19.8067Z" fill="#373435"/>
<path fill-rule="evenodd" clip-rule="evenodd" d="M17.7085 13.9991C14.7483 14.3374 13.5924 15.9725 10.8295 16.2545C6.99531 16.621 6.43146 15.4369 3.6122 14.4501C2.90738 14.1964 0.116319 13.4916 0.00354862 14.3938C-0.0810291 15.155 1.35679 14.7884 3.18931 15.6906C5.55749 16.8465 6.2623 17.9742 9.64541 18.1997C13.3668 18.4253 13.9871 17.213 16.8627 16.5082C20.1612 15.7188 21.8528 17.1566 24.1082 18.087C26.2508 18.9891 29.6339 19.1301 31.8893 18.2843C34.2857 17.3822 35.5826 15.9443 39.0503 16.4236C41.2493 16.7055 42.4898 18.2843 46.2112 18.2561C50.722 18.1997 51.3704 16.2263 54.4152 15.2677C54.8381 15.1268 55.9376 14.9858 56.1913 14.8448C57.0371 14.3938 56.3887 13.9991 55.5711 13.9991C51.8215 13.9991 50.6374 16.5082 46.3521 16.3108C43.3355 16.1699 42.0387 14.6475 39.5013 14.1118C33.4117 12.8432 31.1 18.2279 24.7566 15.5778C22.3039 14.5629 21.0352 13.6326 17.6803 13.9991H17.7085Z" fill="#373435"/>
<path fill-rule="evenodd" clip-rule="evenodd" d="M40.4599 2.07359C34.624 3.08852 35.6389 11.9128 41.9541 11.1234C44.1531 10.8415 46.1266 8.4733 45.6473 5.76681C45.2526 3.56779 43.1664 1.62251 40.4599 2.07359Z" fill="#373435"/>
</svg>
