<svg width="57" height="42" viewBox="0 0 57 42" fill="none" xmlns="http://www.w3.org/2000/svg">
<path fill-rule="evenodd" clip-rule="evenodd" d="M10.7696 24.9552L3.49588 25.0679C3.89058 25.8291 3.55227 25.7728 6.42791 25.7728C16.3517 25.7728 13.3351 26.5903 17.8741 22.3897C20.2705 20.1906 19.7066 20.1061 22.8078 17.7943L18.0996 17.1458L18.889 13.2271L25.2042 15.5389C24.443 16.6384 23.5408 17.4841 22.4413 18.4991L16.4927 24.5041C15.6187 25.4063 14.2654 26.8159 13.4761 27.4925C10.3749 30.0298 11.7563 25.6318 5.89225 31.8624L0 38.0647C0.422889 39.7281 2.2836 40.743 3.63684 41.7298L8.34501 37.5009C9.10621 36.6833 8.93705 36.6833 9.8674 35.8657C10.4031 35.3864 12.6585 33.2438 12.884 32.8773C13.9271 31.3831 12.9122 29.8889 14.2091 28.2537C15.7315 26.3648 17.1129 25.66 17.7331 25.66L36.0019 25.7164L44.3187 17.5123L39.6106 17.3432L40.5691 13.0579L46.9406 15.5107L36.6222 25.9701C36.0301 26.6749 35.72 26.9287 34.9588 27.4643C32.9853 28.8739 32.2523 27.8308 30.448 28.9303C28.7282 29.9735 22.8642 36.9088 21.6237 38.5158C22.695 39.7563 23.7663 40.743 25.1196 41.7298C26.7548 41.1659 29.9123 37.5573 31.2938 36.1194C32.0832 35.2737 33.521 34.2305 34.3104 33.1592C35.5508 31.4677 34.5359 30.0862 35.72 28.5638C37.6089 26.1675 39.1031 25.519 39.6388 25.4908L56.6107 25.3499C56.1596 24.5323 56.1314 24.6733 53.6223 24.6733H50.4647C49.2524 22.5588 52.0435 24.5323 45.8129 18.6682C46.1794 17.9916 47.3917 16.8921 48.3503 15.8208C49.3652 16.0181 50.211 16.4974 51.0568 15.7362C52.1281 14.3266 50.8312 13.6218 51.0286 13.1425C51.1695 12.8606 51.4233 12.5223 51.9307 11.8174C52.8893 10.4924 51.4515 11.0562 51.0849 11.3945C50.7748 11.6765 50.4365 12.1276 49.7599 12.8042C47.5045 12.1276 44.8262 11.1972 42.5708 10.3796C36.3966 8.12421 34.2822 6.6582 32.6752 16.7511L32.1959 24.7014L28.6437 24.6733C27.234 21.9668 29.9123 23.9121 24.1047 18.781C25.1196 16.8357 25.9654 16.3282 27.234 16.0745C29.2639 15.6798 29.7432 16.3282 29.6868 14.1856C29.6304 12.7196 28.7564 14.2138 30.2224 12.3813C31.3783 10.9153 30.3634 10.8307 29.4331 11.4791C28.982 11.7892 28.5027 12.2967 27.9388 12.776C25.5425 11.902 23.2589 11.2254 20.7779 10.3514C13.4761 7.75771 12.9404 7.3912 11.1079 16.6384C10.4876 19.8241 9.16259 22.2205 10.7978 24.927L10.7696 24.9552ZM38.1727 0.34306C33.6619 2.26015 36.2557 8.71625 40.9638 6.82735C44.939 5.22037 42.458 -1.46127 38.1727 0.34306ZM16.4081 0.371251C14.2654 1.3298 13.6452 3.16232 14.4346 5.05122C15.1112 6.63 17.0283 7.58855 19.171 6.88374C23.0897 5.61507 21.088 -1.715 16.4081 0.371251Z" fill="#373435"/>
</svg>
